<?xml version="1.0" standalone="no"?>
<!DOCTYPE svg PUBLIC "-//W3C//DTD SVG 20010904//EN"
 "http://www.w3.org/TR/2001/REC-SVG-20010904/DTD/svg10.dtd">
<svg version="1.0" xmlns="http://www.w3.org/2000/svg"
 width="1200.000000pt" height="1115.000000pt" viewBox="0 0 1200.000000 1115.000000"
 preserveAspectRatio="xMidYMid meet">

<g transform="translate(0.000000,1115.000000) scale(0.100000,-0.100000)"
fill="#000000" stroke="none">
<path d="M4410 11081 c-58 -16 -134 -37 -170 -49 -36 -11 -93 -23 -125 -27
-33 -4 -67 -11 -75 -15 -9 -5 -49 -11 -90 -15 -74 -6 -205 -39 -226 -56 -6 -5
-49 -27 -94 -50 -48 -23 -109 -64 -144 -96 -34 -30 -74 -61 -89 -70 -31 -15
-148 -50 -210 -61 l-39 -7 21 -27 c12 -14 21 -39 21 -55 0 -33 16 -53 41 -53
27 0 50 -46 54 -110 2 -32 8 -68 14 -79 16 -29 14 -41 -11 -50 -18 -6 -22 -16
-23 -49 -1 -27 3 -42 11 -42 14 0 34 -52 34 -90 0 -35 -25 -56 -75 -65 -71
-13 -113 -43 -85 -60 6 -3 10 -17 10 -29 0 -13 9 -35 20 -49 11 -14 20 -31 20
-39 0 -7 7 -24 16 -36 10 -15 13 -32 9 -53 -4 -17 -2 -35 4 -43 8 -10 7 -25
-4 -56 -21 -59 -19 -70 15 -81 17 -6 30 -16 30 -23 0 -6 9 -20 21 -30 14 -12
20 -25 16 -42 -3 -18 5 -32 33 -58 21 -19 47 -37 59 -41 22 -7 27 -30 12 -53
-4 -8 -33 -17 -62 -20 -48 -6 -54 -10 -57 -33 -2 -15 5 -32 18 -44 11 -10 20
-24 20 -32 0 -7 9 -13 20 -13 46 0 -3 -87 -60 -105 -15 -5 -17 -11 -10 -33 4
-15 13 -70 20 -122 6 -52 20 -111 30 -130 10 -19 21 -50 25 -67 7 -33 18 -42
30 -23 11 18 35 -10 35 -41 0 -23 4 -29 22 -29 12 0 34 11 48 25 25 24 28 25
62 11 23 -10 60 -14 104 -13 65 3 114 -8 114 -26 0 -13 43 -46 61 -47 21 0 52
66 54 118 3 47 27 82 57 82 11 0 28 5 39 11 25 13 46 -2 51 -34 4 -28 36 -34
53 -10 12 16 17 16 35 5 18 -11 25 -11 38 1 11 9 30 13 52 10 19 -2 30 -1 25
4 -14 10 -18 73 -6 73 6 0 16 18 22 40 7 22 16 40 21 40 4 0 8 6 8 14 0 26 21
29 37 6 11 -16 18 -19 26 -11 6 6 21 11 33 11 13 0 32 12 43 26 21 26 21 26 1
54 -27 38 -26 54 3 45 12 -4 36 -9 52 -12 17 -3 44 -16 62 -29 17 -13 38 -21
47 -18 8 3 25 28 37 55 25 53 30 57 53 34 9 -9 21 -15 28 -14 27 3 38 -2 38
-17 0 -12 7 -14 29 -9 19 4 34 1 44 -9 9 -9 22 -13 30 -10 20 7 40 -31 33 -61
-5 -20 -1 -23 51 -34 81 -16 152 -14 159 4 4 10 16 13 37 11 24 -2 33 -9 38
-30 8 -30 27 -56 40 -56 5 0 6 7 3 15 -5 12 2 15 35 15 29 0 43 5 50 19 14 26
62 34 77 13 12 -16 15 -16 43 1 17 10 39 17 49 15 9 -1 32 8 51 21 29 21 32
28 28 60 -2 20 2 48 10 64 13 26 13 31 -2 47 -16 18 -13 64 6 76 5 3 9 16 9
29 0 13 5 36 12 50 10 22 9 31 -6 55 -12 21 -15 40 -10 64 4 22 1 45 -9 63
-46 88 -56 277 -19 350 12 23 30 44 39 47 10 3 30 25 46 49 25 41 27 52 27
146 0 89 2 101 18 101 13 0 14 2 3 9 -7 5 -31 6 -53 4 -59 -8 -212 43 -253 85
-18 17 -41 32 -52 32 -49 0 -104 73 -103 137 2 61 -10 101 -31 106 -10 3 -19
10 -19 16 0 7 10 9 25 5 24 -6 26 -5 19 22 -14 56 -55 132 -73 137 -14 3 -21
18 -26 55 -4 28 -4 55 -1 61 3 5 -12 25 -34 44 -45 38 -47 52 -23 116 12 31
14 46 6 48 -7 3 -30 17 -52 34 l-41 29 -217 -1 c-204 -1 -225 -3 -323 -28z"/>
<path d="M5443 10749 c23 -49 57 -82 57 -55 0 7 -18 33 -39 57 l-40 44 22 -46z"/>
<path d="M3055 10631 c-33 -10 -73 -23 -88 -30 -46 -18 -116 -81 -156 -138
-99 -142 -124 -173 -192 -238 -118 -111 -222 -156 -393 -170 -44 -3 -99 -14
-123 -25 -53 -23 -226 -70 -259 -70 -14 0 -39 -7 -56 -16 -17 -9 -74 -20 -127
-24 -88 -9 -219 -44 -431 -117 -25 -8 -77 -26 -116 -40 -67 -23 -70 -25 -66
-52 3 -23 9 -28 35 -28 61 -3 68 -7 88 -45 14 -28 25 -38 36 -34 8 3 26 9 39
12 13 3 24 10 24 15 0 5 5 9 10 9 6 0 10 -6 10 -14 0 -8 7 -16 15 -20 9 -3 15
-18 15 -40 0 -19 5 -38 10 -41 6 -3 10 -15 10 -25 0 -10 9 -21 19 -25 19 -6
19 -37 1 -32 -15 4 -60 -54 -60 -78 0 -13 -4 -27 -10 -30 -5 -3 -10 -17 -10
-30 0 -13 -4 -27 -10 -30 -15 -10 -12 -36 7 -50 13 -10 14 -17 5 -44 -8 -24
-8 -42 3 -78 11 -37 12 -50 2 -61 -10 -13 -15 -36 -17 -77 0 -5 1 -21 3 -35 1
-17 -7 -35 -25 -53 -22 -23 -27 -34 -21 -55 11 -40 8 -111 -5 -124 -7 -7 -12
-23 -12 -36 l0 -24 -49 29 c-27 15 -49 30 -48 33 1 3 -6 16 -16 30 -9 13 -17
37 -17 52 0 14 -6 33 -12 40 -7 7 -14 20 -16 28 -2 8 -11 31 -20 50 -9 19 -17
41 -17 49 0 14 -40 31 -118 50 -66 15 -85 14 -92 -8 -3 -11 -12 -22 -20 -25
-8 -3 -15 -12 -15 -21 0 -17 -11 -20 -26 -6 -9 9 -37 14 -61 12 -7 0 -13 -7
-13 -15 0 -17 -24 -28 -36 -16 -14 13 -118 -8 -131 -26 -14 -19 -43 -12 -43
11 0 11 -11 15 -40 15 -32 0 -43 -5 -57 -26 -24 -37 -21 -118 6 -154 16 -22
22 -50 27 -115 4 -47 11 -88 16 -91 4 -3 8 -12 8 -21 0 -9 7 -25 16 -35 14
-15 15 -18 2 -23 -20 -8 -6 -145 17 -157 8 -5 15 -15 15 -23 0 -16 -70 -125
-81 -125 -4 0 -12 -13 -19 -29 -9 -22 -9 -34 0 -51 13 -24 1 -96 -27 -162 -17
-41 -119 -129 -178 -154 -21 -8 -51 -25 -67 -37 -29 -21 -29 -24 -22 -77 11
-79 9 -99 -15 -124 -34 -36 -27 -53 27 -67 39 -9 57 -22 88 -60 21 -26 47 -51
56 -54 41 -14 115 -102 172 -204 5 -9 29 -31 53 -49 40 -31 47 -32 78 -22 18
6 39 18 45 26 18 20 33 17 58 -11 12 -14 29 -25 38 -25 27 0 54 20 54 40 0 11
9 24 19 29 23 13 41 61 41 112 0 43 24 79 53 79 13 0 17 5 14 14 -3 8 -1 16 6
19 6 2 10 18 9 36 -3 37 13 71 33 71 8 0 14 3 14 8 -3 19 3 34 21 52 l21 21
39 -33 c22 -18 40 -39 40 -46 0 -9 5 -10 19 -2 30 15 45 12 56 -12 11 -26 40
-28 90 -7 17 7 32 13 35 14 61 15 180 66 180 76 0 5 -9 23 -20 41 -37 61 -19
85 41 54 29 -15 59 -5 59 19 0 14 71 57 87 53 14 -3 67 14 91 29 24 15 42 10
42 -11 0 -17 29 -42 59 -49 15 -4 33 2 53 16 24 18 32 19 49 9 11 -7 30 -10
45 -6 21 5 25 11 21 31 -3 16 2 32 14 44 10 10 16 25 13 32 -3 9 3 17 17 20
15 4 20 11 15 22 -4 12 2 20 24 28 20 8 28 17 27 31 -2 16 6 21 38 27 22 4 45
3 52 -3 6 -5 25 -10 41 -10 27 -1 31 -5 36 -42 4 -23 2 -55 -3 -73 -10 -33 -1
-43 39 -43 11 0 23 -7 28 -16 13 -24 80 -36 106 -18 20 12 131 53 148 54 4 0
14 -7 22 -16 9 -8 16 -11 16 -5 0 6 15 24 32 40 29 26 32 32 22 57 -9 26 -7
32 23 61 21 20 31 37 27 47 -8 20 25 34 36 16 6 -9 13 -8 33 5 15 9 32 15 39
13 16 -6 48 34 48 57 0 29 45 63 74 58 15 -3 26 -12 27 -22 1 -13 11 16 22 66
2 7 19 28 40 48 l36 35 -35 27 c-18 16 -34 33 -34 40 0 6 -8 11 -17 11 -26 -1
-73 20 -73 32 0 5 -5 10 -11 10 -12 0 -73 49 -75 59 0 3 -3 13 -7 21 -22 57
-32 117 -23 143 11 30 22 34 45 13 13 -12 31 -12 106 -3 79 9 92 14 113 39 13
15 30 28 37 28 7 0 15 18 19 45 4 24 11 47 17 50 5 4 9 19 9 36 0 16 5 29 10
29 6 0 10 9 10 20 0 15 9 22 30 26 16 4 35 13 41 20 7 9 16 11 23 5 7 -6 21
-2 38 12 24 20 26 26 18 62 -30 136 -32 119 19 156 52 40 60 54 30 62 -11 3
-18 10 -15 16 3 5 -4 18 -17 28 -36 28 -42 67 -15 96 13 13 29 22 36 19 22 -7
82 8 82 22 0 7 -11 18 -24 24 -14 6 -35 20 -48 31 -13 11 -32 27 -43 35 -15
11 -17 17 -8 27 13 13 7 35 -19 61 -23 23 -28 23 -28 -3 0 -36 -35 -19 -36 18
-1 17 -4 39 -8 48 -3 10 -2 23 4 30 16 20 19 165 3 165 -7 0 -13 11 -13 25 0
25 -13 55 -38 86 -7 9 -12 20 -10 25 1 5 -4 19 -11 32 -11 20 -10 26 4 42 19
21 55 36 106 45 49 7 63 26 55 70 -5 24 -15 39 -31 47 -21 9 -22 14 -13 40 8
21 7 33 -1 41 -15 15 -14 37 3 37 28 0 39 27 23 58 -8 17 -11 35 -6 44 7 13
-6 67 -24 96 -5 6 -17 12 -28 12 -19 0 -38 32 -43 75 -2 16 -44 97 -49 94 -1
0 -29 -8 -62 -18z"/>
<path d="M10055 10380 c-3 -5 0 -18 7 -29 10 -16 9 -23 -5 -39 -9 -10 -17 -24
-17 -30 0 -18 -20 -25 -36 -11 -8 6 -15 10 -17 8 -24 -42 -25 -47 -14 -58 9
-9 9 -14 0 -19 -6 -4 -21 -28 -32 -54 -19 -46 -21 -47 -61 -45 l-42 3 6 -35
c3 -19 0 -41 -6 -48 -7 -9 -7 -17 2 -28 6 -8 9 -19 5 -25 -10 -16 -45 17 -45
42 0 10 -5 17 -11 16 -7 -2 -16 11 -20 27 -7 26 -13 30 -49 32 -43 3 -45 -2
-40 -64 1 -15 -4 -23 -13 -23 -22 0 -10 -38 23 -77 25 -28 29 -29 43 -16 13
13 17 10 38 -26 12 -23 26 -41 31 -41 15 0 8 -50 -7 -56 -29 -12 -17 -51 23
-74 35 -20 72 -77 72 -112 0 -8 11 -26 25 -39 77 -75 79 -79 82 -130 2 -43 -2
-58 -28 -97 -18 -27 -28 -53 -25 -64 9 -37 -29 -105 -70 -124 -23 -11 -41 -29
-48 -46 -11 -29 -25 -35 -42 -18 -7 7 -20 0 -39 -20 -16 -16 -39 -30 -51 -30
-25 0 -38 -27 -28 -54 8 -22 -34 -22 -51 0 -10 15 -18 10 -62 -34 -27 -27 -64
-57 -80 -66 -17 -8 -50 -38 -73 -66 -50 -60 -134 -120 -168 -120 -17 0 -27 -9
-38 -35 -16 -39 -38 -45 -54 -16 -9 17 -14 19 -43 9 -42 -14 -58 -30 -72 -70
-9 -30 -14 -33 -50 -32 -22 0 -65 11 -95 22 -64 26 -90 27 -145 8 -37 -13 -40
-17 -37 -48 2 -18 8 -37 13 -42 5 -6 9 -17 9 -26 0 -9 9 -25 20 -35 11 -10 20
-24 20 -32 0 -7 7 -16 15 -19 20 -8 19 -31 -2 -43 -16 -10 -16 -11 5 -17 12
-3 22 -10 22 -15 0 -5 11 -15 25 -21 26 -12 34 -37 13 -39 -25 -1 -62 -9 -67
-15 -3 -2 -4 -20 -3 -39 2 -19 -2 -35 -7 -35 -12 0 18 -63 36 -73 8 -5 11 -17
7 -32 -3 -13 0 -34 8 -47 7 -12 13 -38 14 -55 2 -49 19 -63 78 -63 46 0 54 -3
69 -27 31 -52 55 -73 71 -67 9 3 16 12 16 20 0 16 36 19 45 4 4 -6 1 -18 -7
-27 -10 -13 -10 -17 0 -20 20 -8 13 -33 -9 -33 -25 0 -49 -28 -42 -47 3 -7 11
-13 18 -13 7 0 15 -5 17 -11 2 -6 13 -12 23 -14 42 -4 85 -27 85 -45 0 -10 7
-25 15 -34 19 -18 19 -30 2 -45 -19 -15 -10 -72 12 -69 10 2 16 -4 17 -17 2
-39 4 -43 26 -48 14 -4 26 0 35 11 12 16 14 16 24 -1 10 -17 13 -17 34 -3 14
9 33 16 45 16 15 0 20 7 20 25 0 21 5 25 28 24 15 0 37 2 49 6 18 6 23 2 29
-19 3 -14 10 -26 14 -26 4 0 10 -7 14 -15 7 -19 -31 -58 -50 -51 -15 6 -20 -9
-5 -19 5 -3 12 -18 16 -34 3 -17 14 -31 26 -34 13 -3 19 -14 19 -32 0 -30 22
-30 26 0 3 19 21 35 41 35 7 0 10 7 7 15 -5 12 2 15 32 15 65 0 76 -17 60 -99
-11 -60 1 -171 20 -171 23 0 16 -23 -18 -64 -25 -30 -28 -40 -17 -47 8 -5 16
-9 19 -9 3 0 30 -30 58 -66 51 -63 53 -67 42 -100 -13 -38 -8 -52 25 -64 20
-8 23 -14 18 -43 -11 -67 33 -97 144 -97 28 0 54 -4 57 -9 3 -4 17 -6 31 -3
15 2 25 0 25 -7 0 -6 12 -11 26 -11 14 0 34 -5 44 -10 14 -7 31 -6 62 5 62 21
76 19 119 -20 22 -19 46 -35 53 -35 20 0 46 -39 46 -67 0 -26 12 -30 30 -8 7
8 19 15 27 15 8 0 21 -7 29 -15 29 -28 44 -16 84 70 21 47 52 105 68 128 16
24 41 69 55 100 53 116 146 231 227 281 94 58 137 75 196 82 54 7 60 11 117
70 33 35 67 66 76 69 9 3 26 22 39 41 24 39 27 90 11 184 -6 30 -14 84 -19
120 -5 36 -13 84 -18 108 -8 36 -6 47 9 67 11 13 15 26 10 29 -5 3 -12 27 -16
52 -6 45 -33 103 -61 135 -18 20 -18 47 3 124 l17 63 -37 41 c-20 23 -37 50
-37 61 0 11 -9 25 -21 32 -25 15 -66 95 -103 196 -14 40 -40 105 -57 145 -94
218 -172 450 -188 560 -4 26 -18 62 -32 80 -19 25 -24 47 -27 107 -3 49 -9 78
-18 83 -19 11 -34 72 -34 139 0 46 -4 59 -19 67 -27 15 -33 60 -11 88 32 41
35 94 7 155 -14 29 -28 67 -32 83 -8 34 -32 65 -51 65 -8 0 -29 22 -46 50 -18
27 -38 50 -45 50 -7 0 -17 9 -23 19 -7 14 -25 21 -67 26 -40 5 -66 15 -83 31
-14 12 -37 27 -52 33 -16 6 -28 17 -28 26 0 19 -5 19 -36 -2 -24 -15 -28 -15
-60 1 -31 14 -35 20 -30 44 5 23 1 29 -27 42 -17 8 -31 21 -29 29 5 26 -20 41
-69 41 -26 0 -50 -4 -54 -10z"/>
<path d="M9636 10131 c-17 -7 -17 -9 6 -36 24 -27 25 -28 30 -7 8 28 -12 52
-36 43z"/>
<path d="M9416 9988 c-4 -18 -8 -20 -18 -10 -16 16 -43 15 -58 -2 -6 -8 -26
-16 -43 -18 -25 -2 -33 -8 -35 -26 -3 -19 -9 -23 -35 -22 -73 4 -99 -22 -65
-66 16 -19 19 -31 12 -43 -6 -9 -9 -41 -7 -71 4 -78 -3 -102 -25 -91 -66 36
-86 41 -100 28 -11 -12 -11 -17 2 -30 23 -22 20 -27 -14 -27 -17 0 -39 -5 -49
-12 -27 -17 -44 0 -60 61 -14 56 -37 72 -58 41 -8 -12 -26 -25 -39 -30 -13 -5
-23 -15 -22 -22 2 -9 -15 -13 -60 -14 -58 -1 -64 0 -72 22 -6 14 -18 24 -30
24 -11 0 -20 5 -20 10 0 22 -38 -10 -48 -40 -6 -16 -18 -30 -26 -30 -9 0 -16
-7 -16 -15 0 -15 13 -29 54 -58 13 -10 16 -18 10 -28 -5 -8 -9 -21 -9 -29 0
-8 -9 -16 -20 -16 -11 -1 -24 -3 -30 -4 -19 -4 -70 2 -86 10 -8 5 -21 5 -28 1
-16 -10 -28 -91 -13 -91 18 0 37 -83 25 -110 -3 -8 -8 -40 -10 -70 -3 -31 -11
-58 -18 -62 -7 -5 -16 -31 -20 -58 -6 -41 -10 -49 -20 -40 -10 8 -15 6 -20 -9
-10 -33 -25 -24 -27 17 -3 59 -5 96 -7 113 -1 21 -40 32 -47 14 -6 -15 -29
-14 -47 4 -8 8 -8 14 -1 19 17 11 16 69 -1 76 -17 6 -21 66 -5 66 6 0 10 7 10
15 0 8 5 15 10 15 6 0 10 7 10 15 0 8 -3 15 -7 15 -5 0 -21 13 -38 28 -45 42
-95 26 -87 -27 3 -22 -1 -32 -17 -40 -26 -14 -27 -45 -2 -70 11 -11 16 -24 11
-31 -5 -7 -6 -19 -3 -26 6 -17 -32 -54 -57 -54 -12 0 -20 -7 -21 -17 -2 -23
-2 -24 6 -56 6 -24 4 -27 -18 -27 -20 0 -28 -9 -45 -47 -20 -47 -21 -47 -27
-20 -4 15 -19 36 -34 46 -33 24 -64 13 -86 -28 -8 -17 -21 -31 -27 -31 -6 0
-8 -3 -5 -7 4 -3 2 -12 -4 -19 -14 -17 -2 -37 17 -30 10 4 14 0 12 -12 -2 -13
5 -18 30 -20 18 -2 32 -9 32 -16 0 -16 -68 -106 -80 -106 -25 0 -61 -55 -67
-101 -5 -45 -8 -49 -33 -49 -15 0 -33 7 -40 15 -7 8 -21 15 -31 15 -16 0 -17
3 -7 28 7 15 19 35 27 45 13 16 13 19 1 27 -22 14 -26 13 -53 -20 -30 -35 -47
-38 -47 -10 0 17 -4 19 -27 14 -16 -4 -36 -14 -47 -24 -15 -15 -16 -21 -6 -40
9 -17 9 -25 -3 -38 -8 -9 -15 -39 -16 -66 -1 -34 -8 -55 -21 -66 -12 -10 -18
-29 -18 -48 1 -38 -7 -49 -25 -34 -10 9 -16 9 -25 0 -8 -8 -15 -8 -25 0 -21
18 -75 21 -88 6 -12 -15 -42 -7 -32 9 4 6 -3 8 -21 3 -17 -4 -34 -2 -42 5 -16
13 -44 -4 -44 -27 0 -7 -9 -18 -20 -24 -16 -8 -24 -6 -40 10 -11 11 -19 24
-16 28 2 4 -15 25 -39 46 l-43 39 22 41 c37 70 35 68 65 47 23 -16 31 -18 43
-8 22 17 29 55 16 86 -6 14 -10 31 -9 38 1 6 -8 15 -20 18 -16 5 -18 9 -9 15
8 5 10 17 6 34 -4 18 -2 26 6 27 7 0 4 5 -8 11 -21 10 -27 19 -76 122 -18 37
-33 56 -45 56 -34 1 -54 25 -47 57 4 18 1 33 -5 37 -16 10 -13 26 4 26 8 0 15
2 15 5 0 8 -64 66 -91 82 -26 16 -30 53 -5 53 6 1 5 6 -4 13 -8 7 -16 28 -16
47 -2 58 -11 130 -16 136 -21 20 -73 8 -126 -30 -7 -5 -28 -11 -46 -13 -26 -3
-37 2 -49 21 -18 27 -65 40 -86 23 -10 -9 -17 -7 -28 8 -14 20 -14 20 -26 0
-16 -26 -26 -75 -20 -91 2 -6 13 -14 24 -17 20 -5 27 -37 8 -37 -6 0 -9 -9 -6
-20 7 -26 -7 -34 -34 -19 -18 9 -21 9 -16 -4 7 -20 -46 -97 -68 -97 -19 0 -31
-35 -30 -95 1 -53 3 -60 19 -57 27 5 37 -17 30 -66 -5 -35 -3 -46 12 -57 14
-10 16 -17 8 -25 -19 -19 -80 -1 -121 36 -21 19 -40 34 -43 34 -11 -1 -46 -36
-53 -52 -3 -10 -16 -18 -27 -18 -17 0 -20 -4 -15 -19 4 -14 -1 -25 -18 -36
-28 -18 -57 -11 -57 15 0 23 -18 36 -32 22 -6 -6 -13 -25 -17 -44 -5 -22 -13
-33 -24 -32 -21 2 -71 -62 -63 -81 3 -8 13 -15 22 -15 25 0 54 -29 47 -47 -3
-8 -1 -18 4 -22 20 -12 25 -51 9 -57 -21 -8 -20 -19 4 -41 24 -23 54 -131 40
-148 -7 -8 -4 -18 10 -30 18 -16 22 -17 38 -3 9 8 35 18 57 21 37 6 42 3 65
-28 14 -19 33 -35 44 -35 11 0 16 -5 13 -13 -4 -10 6 -14 41 -13 46 1 47 0 50
-31 3 -30 6 -33 37 -33 18 0 35 5 37 10 4 12 64 16 96 6 16 -5 22 -15 22 -37
0 -18 5 -29 14 -29 8 0 17 -11 20 -24 3 -13 9 -32 13 -42 5 -13 3 -16 -9 -12
-19 8 -38 -10 -38 -34 0 -12 10 -20 30 -24 31 -7 38 -20 38 -69 1 -53 17 -80
57 -92 l37 -12 -6 34 c-7 35 -3 41 48 83 8 6 24 12 36 12 16 0 20 -6 20 -35 0
-19 5 -35 10 -35 6 0 21 -11 34 -25 22 -24 25 -24 79 -13 32 7 57 16 57 20 0
18 50 7 64 -14 12 -17 18 -20 28 -10 15 15 58 15 95 1 37 -14 102 -14 116 0 8
8 8 11 -1 11 -22 0 -12 21 18 38 16 9 41 38 54 63 34 61 61 85 79 70 19 -15
107 -23 107 -9 0 6 9 8 20 5 13 -3 24 1 30 14 6 10 21 19 34 19 22 0 45 31 60
81 2 9 18 23 34 31 25 13 36 13 82 1 58 -15 83 -14 78 2 -2 5 11 12 27 15 25
5 30 10 27 31 -3 32 20 53 50 46 12 -4 27 -2 34 4 14 11 54 -2 73 -25 12 -14
16 -14 43 2 16 9 45 36 64 60 20 23 40 42 45 42 5 0 28 14 52 31 37 27 48 30
88 26 25 -3 66 0 90 7 38 11 44 17 47 43 3 26 9 32 57 47 30 9 84 19 122 23
37 3 80 12 95 19 23 12 37 12 90 0 35 -7 77 -21 93 -30 43 -23 64 -20 76 12
25 60 31 68 69 80 55 17 68 15 76 -10 6 -20 8 -19 26 15 11 22 26 37 37 37 10
0 35 11 55 25 20 14 41 25 45 25 4 0 36 32 70 70 35 39 67 70 73 70 6 0 37 25
70 55 59 55 84 65 106 43 9 -9 12 -5 12 20 0 27 4 32 23 32 13 0 43 17 67 37
27 24 45 33 48 25 7 -23 21 -12 28 23 5 30 10 35 33 35 15 0 34 6 43 13 19 15
42 82 34 102 -2 7 4 25 15 38 10 14 19 29 19 33 0 4 6 15 14 23 10 11 13 30 9
62 -5 46 -9 52 -75 112 -15 14 -31 42 -37 63 -14 53 -34 78 -76 98 -28 13 -35
23 -35 45 0 15 9 36 19 45 20 18 20 19 -5 56 -23 34 -29 38 -50 30 -19 -8 -26
-5 -35 13 -7 12 -16 25 -21 28 -15 10 -58 -2 -58 -17 0 -19 -37 -36 -63 -28
-12 4 -22 5 -22 3 -1 -12 -45 42 -69 84 -15 26 -28 47 -30 47 -2 0 -6 -10 -10
-22z"/>
<path d="M670 9620 c-8 -5 -12 -12 -9 -15 4 -3 12 1 19 10 14 17 11 19 -10 5z"/>
<path d="M613 9600 c-30 -12 -29 -18 2 -12 14 2 25 8 25 13 0 5 -1 9 -2 8 -2
0 -13 -4 -25 -9z"/>
<path d="M556 9554 c-11 -7 -16 -17 -13 -21 4 -4 15 1 24 10 22 21 14 30 -11
11z"/>
<path d="M7312 9193 c-7 -3 -21 -23 -32 -46 -24 -48 -24 -48 -7 -41 8 3 18 -6
25 -21 6 -14 16 -25 22 -25 6 0 23 -11 38 -25 20 -19 34 -24 51 -20 34 8 52
35 40 57 -7 13 -6 18 5 18 16 0 29 41 20 63 -8 23 -84 49 -101 35 -10 -8 -17
-8 -25 0 -13 13 -16 13 -36 5z"/>
<path d="M4640 9065 c-7 -17 -16 -40 -21 -52 -7 -18 -16 -23 -44 -23 -19 0
-35 4 -35 9 0 8 -15 15 -88 39 l-34 11 16 -24 c9 -13 16 -31 16 -40 0 -22 -52
-65 -71 -59 -9 2 -22 -3 -29 -11 -12 -14 -15 -14 -30 0 -15 14 -18 13 -33 -2
-8 -10 -19 -30 -22 -46 -4 -15 -11 -30 -16 -33 -12 -7 -11 -44 1 -44 6 0 10
-12 10 -26 0 -26 -2 -26 -47 -22 -27 3 -42 3 -35 1 15 -6 16 -43 2 -43 -6 0
-24 10 -40 22 -28 20 -31 21 -48 4 -26 -23 -69 -7 -78 29 -5 19 -11 24 -23 19
-9 -3 -27 -9 -41 -11 -36 -8 -50 -31 -50 -85 0 -26 -4 -48 -9 -48 -5 0 -15
-24 -21 -53 -9 -45 -20 -62 -65 -107 -30 -30 -55 -62 -55 -72 0 -10 -11 -25
-25 -34 -14 -9 -25 -21 -25 -26 0 -5 22 -19 50 -31 34 -15 54 -32 64 -53 9
-17 34 -51 56 -75 40 -44 47 -59 33 -73 -5 -4 -8 -11 -8 -14 -2 -25 -29 -52
-53 -52 -38 0 -47 -10 -49 -54 -2 -47 10 -72 37 -81 26 -8 26 -32 0 -40 -16
-5 -20 -15 -20 -46 0 -27 -6 -42 -18 -50 -15 -10 -18 -21 -14 -62 4 -40 1 -53
-13 -63 -13 -9 -15 -20 -10 -43 7 -35 9 -35 53 -20 29 10 35 8 75 -25 24 -20
50 -36 58 -36 18 0 43 -38 45 -70 2 -14 5 -46 7 -72 3 -30 1 -48 -5 -48 -6 0
-8 -13 -6 -31 3 -17 -1 -48 -8 -68 -11 -31 -16 -36 -40 -33 -73 9 -95 -33 -36
-70 17 -11 38 -33 47 -50 18 -38 18 -38 0 -38 -20 0 -19 -10 2 -25 14 -10 21
-10 40 2 13 9 23 11 23 7 0 -5 6 -2 13 7 7 9 27 18 45 21 26 4 35 0 45 -16 6
-12 10 -25 8 -31 -2 -5 -4 -22 -5 -37 -2 -24 2 -28 24 -28 23 0 26 -4 25 -35
-1 -19 1 -35 4 -35 17 1 32 19 29 35 -3 20 57 61 67 45 4 -6 15 -10 26 -10 10
0 28 -9 39 -20 14 -14 28 -18 44 -14 18 4 26 1 30 -14 4 -11 13 -23 21 -25 7
-3 12 -17 11 -31 -2 -14 1 -23 6 -20 5 3 14 1 21 -4 7 -6 23 -12 37 -14 17 -2
26 -10 28 -25 3 -24 4 -24 92 -27 33 -1 35 -3 34 -33 -1 -22 3 -33 12 -33 8 0
14 -4 14 -10 0 -5 8 -9 18 -8 54 4 72 -2 72 -26 0 -22 3 -23 40 -16 49 9 107
52 112 82 3 25 25 33 48 18 10 -6 15 -27 15 -64 1 -62 8 -75 29 -56 9 6 21 10
28 8 7 -3 21 6 32 20 15 19 25 23 47 18 30 -6 61 -32 72 -58 4 -11 13 -15 26
-11 12 3 21 1 21 -5 0 -6 10 -12 22 -14 13 -2 29 -15 36 -30 7 -16 19 -28 26
-28 9 0 12 -9 8 -25 -3 -20 0 -25 15 -25 22 0 73 -71 73 -101 0 -23 9 -24 36
-5 10 8 29 12 41 9 13 -3 29 1 38 11 9 9 23 16 31 16 8 0 22 17 31 37 15 37
15 37 32 17 9 -11 24 -23 34 -27 9 -3 17 -12 17 -19 0 -7 14 -26 30 -41 27
-28 30 -28 67 -16 21 7 56 12 78 10 29 -2 48 3 67 18 14 12 30 21 35 21 5 0
23 16 40 35 17 19 29 35 25 35 -3 0 -1 5 6 12 18 18 15 35 -8 41 -35 9 -24 37
14 37 28 0 36 5 45 28 6 15 22 44 36 65 24 35 24 37 6 37 -30 0 -51 11 -51 26
0 8 7 14 16 14 12 0 14 7 9 29 -6 27 -4 30 21 33 15 2 32 12 38 23 6 11 18 25
26 32 13 11 13 15 -4 28 -11 8 -26 15 -33 15 -20 0 -16 27 8 49 29 26 48 66
56 113 6 38 7 40 38 34 29 -6 33 -4 37 19 3 14 1 25 -4 25 -5 0 -7 8 -4 18 4
11 -9 33 -39 66 -49 53 -58 90 -25 101 11 3 20 13 20 21 0 7 9 19 19 26 19 12
19 13 -2 52 -51 100 -51 105 6 99 26 -3 56 2 80 11 36 16 37 17 22 39 -29 41
-19 48 38 26 28 -11 59 -27 68 -35 15 -14 16 -9 15 54 -1 51 -6 73 -19 86 -9
10 -17 30 -16 44 0 15 -3 45 -7 66 -7 37 -6 39 15 33 14 -3 24 0 28 9 3 8 13
14 23 14 10 0 20 9 23 21 3 11 15 23 27 26 18 5 20 10 14 32 -4 14 -10 46 -13
71 -5 39 -9 45 -32 48 -35 4 -46 48 -19 77 23 26 22 56 -2 63 -15 3 -18 11
-14 28 9 34 -24 49 -78 35 -22 -6 -57 -12 -76 -13 -33 -3 -35 -1 -35 27 l-1
30 -58 -3 c-52 -2 -57 0 -46 13 7 9 11 17 9 18 -2 1 -16 9 -31 16 -14 7 -29
22 -31 32 -4 15 -11 18 -39 13 -18 -4 -39 -15 -46 -25 -12 -15 -17 -16 -35 -6
-45 26 -73 67 -46 67 11 0 2 41 -11 50 -4 3 -7 21 -7 39 0 19 -5 37 -11 39 -7
2 -17 13 -23 24 -8 15 -7 24 7 39 16 17 16 22 4 29 -8 5 -15 21 -15 36 0 28
-8 35 -68 54 -43 13 -215 6 -232 -11 -15 -15 -35 -11 -28 7 5 13 2 15 -18 9
-13 -4 -26 -11 -29 -15 -12 -16 -47 -28 -73 -23 -22 4 -27 11 -27 34 0 16 -4
29 -8 29 -13 0 -32 47 -32 79 0 16 9 40 20 54 27 35 26 51 -3 33 -18 -13 -30
-13 -59 -4 -32 9 -40 8 -63 -11 -15 -11 -36 -21 -46 -21 -11 0 -19 -7 -19 -15
0 -27 -47 -17 -69 14 -12 16 -21 34 -21 39 0 5 -7 13 -16 16 -22 8 -24 8 -24
-8 0 -26 -234 -1 -252 28 -4 6 -3 15 2 20 6 6 10 19 10 29 0 16 -6 18 -37 15
-43 -6 -93 15 -93 37 0 18 -12 19 -28 3 -8 -8 -16 -5 -31 13 l-19 24 -12 -30z"/>
<path d="M5870 8955 c-7 -8 -16 -13 -20 -10 -4 2 -19 -9 -34 -25 -14 -17 -35
-30 -46 -30 -12 0 -23 -7 -27 -16 -3 -8 -11 -13 -18 -10 -12 4 -26 -17 -38
-56 -4 -11 -14 -15 -34 -13 -34 4 -53 -10 -53 -40 0 -22 2 -23 68 -17 37 3 91
6 120 6 29 1 52 6 52 12 0 14 63 74 78 74 7 0 12 6 12 14 0 7 3 27 6 43 5 25
2 31 -16 36 -13 3 -20 12 -18 23 4 23 -16 29 -32 9z"/>
<path d="M3257 8849 c-4 -17 -11 -20 -28 -16 -42 11 -77 -3 -88 -36 -6 -16
-11 -40 -11 -53 0 -12 -5 -24 -11 -26 -6 -2 -12 -21 -14 -43 -2 -22 -9 -41
-16 -44 -6 -2 -29 -19 -49 -37 -34 -31 -44 -34 -101 -36 -35 0 -75 -5 -88 -10
-17 -6 -29 -4 -41 7 -21 19 -30 19 -30 0 0 -8 5 -15 10 -15 13 0 13 -27 -1
-32 -7 -2 -4 -22 8 -57 15 -44 26 -58 56 -74 20 -10 37 -23 37 -28 0 -5 6 -9
14 -9 8 0 16 -7 20 -15 4 -11 13 -14 29 -10 18 5 26 1 35 -20 7 -14 19 -28 28
-32 9 -3 27 -16 41 -29 l25 -23 -29 -15 c-50 -26 -87 -85 -74 -118 6 -16 4
-27 -5 -36 -18 -17 -23 -16 -50 13 -23 24 -24 25 -42 8 -10 -10 -17 -24 -14
-30 2 -7 -1 -13 -7 -13 -6 0 -11 -6 -11 -12 -1 -23 -39 -60 -56 -54 -8 3 -25
-1 -37 -9 -12 -8 -30 -15 -40 -15 -9 0 -21 -8 -24 -17 -4 -10 -15 -24 -25 -31
-14 -11 -17 -21 -12 -47 5 -29 1 -39 -25 -67 -17 -18 -31 -36 -31 -40 0 -12
-35 -9 -48 4 -9 9 -18 9 -37 0 -14 -7 -34 -12 -45 -12 -10 0 -35 -10 -55 -21
-43 -26 -105 -22 -138 9 -12 11 -29 20 -37 20 -8 0 -25 4 -38 8 l-24 7 7 -84
c3 -46 6 -123 7 -171 1 -83 -1 -88 -28 -117 -16 -17 -37 -31 -46 -31 -25 0
-23 -31 2 -37 15 -4 20 -14 20 -37 0 -17 3 -50 6 -73 5 -35 3 -43 -16 -53 -34
-18 -120 -38 -141 -33 -17 5 -18 3 -9 -21 14 -38 13 -56 -5 -56 -17 0 -40 -37
-25 -42 5 -2 12 -18 14 -36 2 -18 11 -41 20 -51 9 -9 16 -26 16 -36 0 -10 8
-27 17 -37 14 -16 15 -23 5 -38 -14 -22 -6 -50 14 -50 8 0 14 -6 15 -12 0 -7
4 -35 9 -63 7 -42 5 -53 -11 -67 -10 -10 -30 -18 -44 -18 -23 0 -25 -2 -15
-21 7 -11 27 -27 46 -35 34 -14 42 -32 24 -50 -6 -6 -13 -40 -15 -75 -4 -80
-7 -90 -28 -122 -24 -37 -25 -192 -1 -201 22 -8 9 -64 -22 -95 -19 -18 -22
-27 -13 -37 6 -8 16 -14 22 -14 6 0 19 -8 30 -17 15 -13 21 -15 24 -5 8 22 49
13 77 -18 30 -34 28 -75 -5 -83 -26 -7 -26 -47 0 -47 11 0 23 -9 26 -20 9 -29
50 -36 90 -14 28 15 37 16 47 6 18 -18 18 -131 1 -159 -12 -21 -12 -23 6 -23
11 0 22 -4 26 -9 3 -6 19 -17 37 -25 33 -17 58 -8 58 20 0 19 64 19 79 0 7 -8
23 -17 37 -20 14 -4 23 -12 21 -19 -3 -7 9 -26 26 -44 24 -26 30 -41 31 -80 1
-41 4 -48 21 -49 62 -3 145 -18 145 -25 0 -5 8 -9 18 -9 9 0 22 -10 27 -22 7
-16 20 -24 43 -26 26 -3 32 -7 32 -28 0 -13 9 -29 20 -36 27 -17 25 -44 -5
-64 -14 -9 -25 -23 -25 -30 0 -8 10 -14 25 -14 14 0 25 -4 25 -9 0 -5 25 -13
55 -16 61 -8 73 -18 54 -42 -11 -13 -10 -17 5 -29 10 -7 24 -24 30 -36 9 -18
21 -24 59 -26 40 -3 50 -7 59 -28 12 -25 20 -27 120 -28 37 -1 58 3 58 11 0
16 58 35 66 21 4 -6 22 -7 43 -4 20 3 42 7 49 8 7 1 12 17 12 44 0 35 5 46 28
62 39 28 119 37 168 19 21 -9 55 -18 75 -20 44 -6 119 -51 119 -71 0 -8 8 -17
18 -20 22 -8 42 -51 42 -91 0 -33 -25 -65 -51 -65 -19 0 -13 -88 8 -112 8 -9
14 -25 13 -35 -1 -10 -2 -24 -1 -30 1 -18 48 -16 55 2 6 17 42 20 51 5 3 -5
13 -10 22 -10 9 0 25 -7 35 -17 17 -15 18 -15 18 5 0 29 13 34 38 16 28 -19
28 -29 -3 -66 -21 -24 -23 -32 -12 -48 6 -11 15 -20 19 -20 5 0 8 -11 8 -25 0
-14 5 -25 11 -25 8 0 9 -12 4 -37 -4 -21 -8 -69 -8 -107 -1 -60 2 -71 22 -87
13 -11 36 -19 52 -19 47 0 48 -42 1 -132 -2 -5 5 -8 15 -8 11 0 28 -6 38 -14
14 -10 26 -11 46 -4 14 5 30 8 35 7 37 -10 154 45 154 72 0 24 18 33 36 18 11
-9 18 -8 32 5 10 9 24 16 30 16 7 0 12 14 12 33 0 18 4 37 10 43 5 5 7 27 3
47 -6 37 -7 38 -42 35 l-36 -3 2 40 c3 40 -13 110 -29 132 -10 12 18 33 44 33
7 0 19 14 27 31 10 24 18 29 34 25 12 -3 27 0 34 6 17 13 17 65 1 71 -9 3 -7
11 8 27 l21 21 57 -30 c31 -17 63 -31 70 -31 8 0 20 20 27 45 7 25 19 45 26
45 18 0 17 65 -1 93 -12 18 -12 32 -4 75 7 36 8 56 1 60 -16 11 -11 76 6 90
15 11 14 13 -1 23 -27 15 -22 37 17 76 19 19 32 39 29 44 -3 6 0 16 6 24 9 11
10 18 1 29 -9 10 -8 15 4 20 18 6 20 37 3 54 -9 9 -7 17 11 36 13 14 21 29 18
33 -3 5 3 17 14 26 10 9 19 24 19 32 0 20 59 20 66 0 4 -8 11 -12 17 -8 22 13
80 13 96 0 9 -8 29 -17 45 -21 32 -8 46 4 46 41 0 12 6 26 13 30 20 12 69 106
59 112 -16 12 -53 81 -43 81 7 0 9 32 5 93 l-5 93 27 13 c22 10 30 9 44 -4 15
-13 23 -14 39 -5 12 6 21 7 21 3 0 -4 7 3 16 15 14 20 21 22 60 16 40 -6 44
-4 44 14 0 11 6 22 13 25 8 3 4 11 -12 24 -26 21 -30 49 -17 116 4 20 13 37
20 37 7 0 28 7 45 16 22 11 49 15 82 12 46 -5 48 -4 43 18 -4 15 0 25 11 32
10 5 15 17 13 28 -2 14 -12 19 -38 20 l-34 0 0 58 c-1 43 -5 61 -18 70 -10 7
-18 18 -18 24 0 6 -10 12 -22 14 -15 2 -22 9 -20 19 4 27 -28 32 -53 9 -12
-11 -28 -20 -37 -20 -9 0 -21 -7 -29 -16 -8 -10 -22 -14 -40 -10 -17 3 -32 0
-39 -9 -7 -8 -23 -15 -36 -15 -19 0 -24 5 -24 24 0 36 -38 96 -61 96 -12 0
-19 7 -19 20 0 11 -6 23 -14 26 -8 3 -18 19 -21 35 -4 19 -13 29 -25 29 -10 0
-22 5 -25 10 -3 6 -17 10 -31 10 -18 0 -24 5 -24 21 0 14 -5 19 -14 16 -8 -3
-16 2 -19 14 -7 28 -49 22 -62 -8 -6 -15 -16 -21 -26 -18 -9 3 -29 0 -43 -6
-37 -17 -48 -3 -50 67 -1 57 -21 88 -28 43 -2 -13 -23 -36 -51 -56 -40 -28
-56 -34 -90 -31 -33 2 -42 7 -41 21 1 11 -6 18 -20 18 -42 3 -51 5 -80 17 -25
11 -28 16 -22 43 6 29 4 31 -19 25 -14 -4 -35 -1 -47 5 -18 9 -24 8 -34 -6
-12 -17 -14 -16 -23 8 -7 17 -21 29 -38 33 -40 10 -63 33 -63 64 0 32 -21 53
-57 55 -13 0 -29 8 -34 18 -11 18 -39 24 -39 7 0 -5 -8 -10 -18 -10 -10 0 -31
-14 -47 -30 -39 -41 -70 -37 -70 8 0 24 -6 36 -24 45 -26 13 -36 61 -18 84 6
9 1 16 -18 23 -22 8 -30 7 -39 -5 -6 -9 -19 -17 -28 -18 -9 -2 -23 -8 -31 -15
-8 -7 -27 -10 -46 -6 -25 5 -31 11 -30 33 0 14 4 35 8 46 6 14 1 25 -18 40
-14 12 -34 24 -43 28 -26 9 -25 77 0 77 10 0 23 5 30 12 9 9 15 9 24 0 35 -35
53 8 59 143 3 69 -21 153 -40 141 -5 -3 -29 10 -53 29 -36 29 -50 34 -68 27
-38 -14 -67 -3 -73 27 -7 33 1 71 15 71 6 0 8 22 6 52 -3 44 1 56 20 76 20 19
23 30 18 58 -6 31 -5 34 16 35 20 0 19 2 -9 16 -31 16 -32 19 -28 65 2 26 -1
48 -6 48 -5 0 -9 6 -9 14 0 15 49 36 86 36 18 0 24 6 24 23 0 13 5 28 12 35 8
8 4 18 -18 40 -44 45 -59 64 -64 86 -3 13 -27 31 -63 48 -63 31 -71 49 -32 80
14 11 25 27 25 35 0 9 27 42 60 73 33 31 60 62 60 69 0 6 -13 11 -28 11 -21 0
-37 11 -61 39 l-33 39 -79 -3 c-47 -1 -89 3 -102 10 -20 10 -27 9 -51 -12 -44
-38 -130 -18 -96 22 18 21 5 30 -24 17 -22 -10 -24 -8 -30 22 -4 19 -18 55
-31 82 -14 27 -25 59 -25 72 0 28 -26 29 -33 1z"/>
<path d="M8550 8542 c-34 -13 -45 -21 -42 -35 2 -10 -1 -24 -8 -31 -16 -21
-107 -47 -135 -40 -20 5 -25 2 -25 -12 -1 -18 -1 -18 -14 -1 -7 9 -18 17 -25
17 -19 0 -130 -80 -136 -98 -3 -9 -28 -32 -55 -49 -48 -32 -50 -32 -67 -14
-23 23 -59 35 -68 21 -3 -5 -17 -7 -31 -4 -27 7 -43 -18 -25 -40 8 -10 6 -17
-8 -30 -11 -10 -25 -15 -31 -11 -6 3 -19 -4 -29 -16 -14 -18 -22 -21 -32 -12
-39 30 -169 19 -169 -15 0 -24 -40 -82 -57 -82 -8 0 -26 -9 -40 -20 -14 -11
-29 -17 -34 -14 -5 3 -9 1 -9 -4 0 -15 -59 -20 -71 -6 -5 6 -23 14 -39 16 -32
5 -53 -11 -64 -48 -4 -12 -22 -37 -41 -56 -21 -23 -30 -39 -24 -45 31 -31 -78
-48 -168 -26 -34 8 -45 7 -54 -3 -18 -22 -45 -16 -57 11 -11 24 -42 35 -42 16
0 -9 -41 -24 -75 -27 -11 -1 -25 -3 -32 -5 -7 -2 -33 10 -58 26 -42 28 -45 33
-40 63 7 37 4 38 -33 15 -43 -28 -51 -42 -38 -74 14 -38 4 -45 -44 -30 -33 10
-45 9 -70 -4 -16 -8 -30 -22 -30 -29 0 -18 -43 -46 -70 -46 -24 0 -25 -4 -4
-35 9 -14 13 -32 10 -41 -4 -9 1 -29 11 -43 11 -17 18 -50 19 -98 2 -81 -6
-89 -55 -54 -15 11 -40 23 -57 26 -24 5 -26 4 -11 -5 25 -16 21 -39 -8 -46
-13 -3 -30 -12 -36 -20 -9 -11 -24 -13 -56 -8 -29 4 -43 3 -43 -5 0 -6 7 -14
15 -17 11 -5 13 -10 5 -19 -7 -8 -1 -23 20 -51 37 -49 38 -63 3 -56 -16 2 -25
1 -20 -3 9 -10 -21 -45 -39 -45 -18 0 -5 -39 17 -51 11 -5 19 -15 19 -21 0 -6
11 -21 25 -34 15 -14 22 -29 19 -38 -4 -11 0 -16 10 -16 15 0 15 -2 1 -31 -15
-29 -15 -32 2 -44 33 -24 2 -30 -37 -7 -21 12 -41 22 -44 22 -2 0 -3 -22 -1
-50 3 -44 2 -50 -16 -50 -10 0 -19 -7 -19 -15 0 -8 -9 -24 -21 -36 -11 -11
-19 -22 -17 -23 2 -2 13 -9 26 -15 12 -6 22 -19 22 -27 0 -25 -51 -84 -72 -84
-18 0 -20 -5 -14 -31 3 -17 6 -35 6 -40 0 -4 10 -9 22 -11 25 -3 37 -28 14
-28 -8 0 -20 -9 -26 -20 -6 -11 -7 -20 -3 -20 4 0 -3 -9 -15 -20 -12 -12 -22
-27 -22 -35 0 -19 -28 -34 -53 -27 -19 5 -19 4 2 -17 16 -16 20 -28 15 -47 -4
-14 -3 -29 2 -33 14 -9 34 -49 34 -65 0 -10 14 -17 38 -21 20 -3 47 -8 60 -11
14 -3 25 1 28 10 5 13 12 12 45 -6 23 -12 38 -26 37 -35 -2 -9 6 -20 17 -27
11 -6 22 -14 25 -18 3 -3 23 -10 45 -14 43 -8 61 -21 66 -49 6 -29 26 -29 54
1 24 25 26 26 49 10 31 -20 52 -20 63 -2 11 18 50 29 58 16 12 -20 33 -10 39
20 7 37 29 47 64 29 24 -12 34 -22 72 -66 6 -7 26 -13 45 -13 23 0 35 -5 35
-13 0 -8 11 -19 25 -25 27 -13 30 -27 15 -67 -8 -21 -5 -34 14 -68 21 -38 27
-42 60 -40 20 1 36 -2 36 -7 0 -25 36 -50 71 -50 29 0 38 -5 47 -25 15 -32 15
-65 2 -65 -5 0 -10 -10 -10 -22 0 -12 -12 -34 -27 -50 -22 -23 -24 -30 -13
-43 7 -9 19 -14 27 -11 8 3 17 -2 20 -12 3 -9 15 -29 25 -44 l19 -27 -31 -16
c-30 -16 -44 -53 -15 -41 8 3 21 9 29 12 7 3 20 -2 29 -10 20 -20 56 -21 63
-1 7 18 40 20 47 3 3 -8 8 -5 13 8 9 21 10 21 46 6 38 -17 62 -51 52 -77 -4
-10 0 -15 12 -13 58 5 73 -2 99 -45 14 -24 25 -51 25 -60 0 -8 5 -17 12 -19 7
-3 9 -12 5 -22 -4 -11 -13 -16 -22 -12 -17 6 -20 -19 -6 -57 5 -13 6 -30 1
-37 -6 -9 4 -19 33 -34 40 -20 42 -23 45 -72 3 -44 -1 -56 -22 -79 -24 -25
-28 -26 -73 -17 -26 6 -51 9 -54 6 -4 -2 -14 4 -21 14 -21 29 -56 33 -99 10
-28 -14 -39 -26 -39 -43 0 -13 6 -25 13 -28 8 -3 20 -26 27 -52 7 -26 22 -56
33 -66 18 -16 19 -24 10 -68 -12 -59 -4 -76 28 -68 13 3 28 7 33 7 6 1 15 -20
22 -45 12 -48 12 -47 -31 -83 -8 -7 -13 -17 -10 -23 11 -17 -6 -49 -26 -49
-23 0 -53 -64 -45 -96 6 -21 38 -39 81 -46 22 -4 33 -37 15 -48 -8 -5 -3 -16
14 -37 15 -18 26 -43 26 -60 0 -38 9 -47 29 -30 31 27 48 26 70 -4 12 -16 26
-29 32 -29 6 0 24 -9 40 -21 30 -21 40 -63 17 -72 -7 -2 -10 -8 -6 -12 4 -4
14 -2 22 4 16 13 50 7 74 -12 18 -15 55 -20 47 -7 -3 6 -3 19 0 30 5 16 12 19
33 13 15 -3 32 -13 38 -21 9 -12 15 -8 33 22 13 20 27 36 33 36 16 0 98 -60
98 -72 0 -9 3 -9 12 0 7 7 20 12 30 12 24 0 41 35 33 72 -7 28 -5 30 16 23 13
-4 33 -15 43 -25 18 -18 18 -20 2 -45 -17 -26 -17 -27 11 -56 15 -15 34 -29
40 -29 9 0 11 -13 9 -41 l-4 -42 124 7 c119 7 124 7 124 -12 0 -11 7 -22 15
-26 8 -3 15 -14 15 -25 0 -14 9 -23 28 -27 15 -4 37 -14 49 -21 24 -16 43 -10
43 13 0 8 7 26 17 40 12 19 22 24 39 20 34 -9 84 4 84 22 0 11 8 13 35 9 19
-3 37 -1 41 4 7 13 34 -8 43 -34 5 -13 18 -21 39 -22 27 -2 35 3 52 33 15 25
19 43 14 66 -4 17 -8 45 -9 61 -2 17 -5 51 -9 78 -5 36 -2 57 13 87 10 21 16
50 14 63 -3 17 2 29 17 40 21 15 21 15 -12 22 -50 11 -53 16 -24 39 16 13 27
33 29 53 2 17 9 39 16 47 17 20 6 36 -25 36 -13 0 -24 5 -24 10 0 6 -11 15
-25 20 -14 5 -25 17 -25 28 0 24 55 64 83 60 17 -2 23 3 25 22 2 14 8 30 13
36 6 7 3 16 -7 25 -9 8 -14 22 -11 37 3 13 -1 36 -8 51 -7 14 -18 39 -24 55
-10 24 -15 27 -39 22 -40 -10 -57 -9 -117 9 -34 9 -55 21 -55 30 0 8 -12 25
-26 38 -22 21 -23 25 -10 36 10 8 14 22 10 36 -3 13 0 26 6 30 17 11 106 -34
118 -59 10 -21 10 -21 17 -1 14 42 23 50 61 55 32 4 40 9 42 29 2 13 12 25 22
28 40 10 29 72 -20 111 l-24 19 26 23 c15 12 46 32 70 44 35 18 42 27 40 46
-4 41 -22 53 -68 46 -33 -4 -43 -2 -48 10 -10 25 -7 32 15 39 11 4 27 21 34
38 12 28 11 36 -14 82 -25 46 -26 53 -14 83 7 18 24 37 37 42 13 5 27 14 31
19 3 6 17 11 31 11 14 0 27 7 30 15 4 8 22 22 40 31 32 15 36 15 53 0 9 -9 34
-16 54 -16 31 0 37 3 37 21 0 23 9 23 95 0 38 -10 41 -9 67 20 33 39 63 36 63
-6 0 -36 28 -46 47 -16 8 13 23 21 41 21 33 0 46 11 69 63 14 28 23 37 43 37
14 0 28 -7 31 -15 4 -8 12 -15 20 -15 8 0 14 -4 14 -9 0 -5 14 -9 31 -9 17 1
34 -5 39 -11 6 -10 12 -10 29 -2 16 9 21 21 21 49 0 21 -5 43 -12 50 -10 10
-6 19 19 43 l31 31 21 -21 c11 -11 28 -21 36 -21 8 0 23 -9 33 -20 16 -17 24
-19 45 -11 19 8 34 6 54 -4 39 -20 57 -19 48 3 -8 19 -9 51 -1 59 2 3 21 5 40
5 42 0 44 3 14 29 l-23 19 28 24 c15 14 27 32 27 41 0 8 9 15 19 15 40 0 50
10 44 46 -6 36 17 84 40 84 15 1 59 89 51 102 -4 5 -16 0 -29 -12 -29 -27 -59
-17 -51 16 7 28 -23 64 -53 64 -11 0 -29 13 -41 29 -28 40 -49 45 -100 22 -37
-16 -47 -17 -74 -6 -17 7 -48 15 -68 19 -30 5 -37 3 -41 -11 -3 -15 -6 -13
-15 9 -11 27 -13 28 -70 22 -38 -4 -62 -3 -66 4 -4 6 -12 9 -19 6 -7 -2 -25 9
-41 25 -23 24 -28 36 -24 65 2 21 0 36 -7 36 -21 0 -36 41 -30 83 5 39 2 46
-35 86 -22 25 -40 47 -40 51 0 4 -11 13 -24 20 -35 18 -41 41 -16 60 24 18 27
46 12 103 -6 21 -8 66 -5 100 10 118 11 112 -24 115 -24 2 -33 -1 -33 -12 0
-8 -10 -16 -22 -18 -14 -2 -22 -11 -23 -26 -2 -31 -16 -42 -43 -36 -19 6 -28
26 -23 57 0 4 -6 7 -14 7 -8 0 -15 7 -15 16 0 9 -10 34 -22 56 l-23 40 23 18
c26 22 32 76 6 66 -9 -3 -24 -6 -35 -6 -14 0 -19 -7 -19 -26 0 -23 -3 -25 -24
-20 -15 4 -28 0 -35 -8 -8 -9 -26 -13 -47 -11 -19 2 -36 -1 -39 -5 -6 -10 -67
10 -77 25 -4 6 -5 18 -2 27 4 12 0 15 -14 11 -16 -4 -20 2 -25 39 -5 32 -2 46
9 55 12 9 13 16 4 32 -6 12 -15 21 -20 21 -6 0 -10 9 -10 19 0 15 -10 21 -40
26 -23 4 -53 19 -71 36 -30 28 -31 31 -15 48 9 9 16 23 16 29 0 7 7 12 15 12
8 0 15 6 15 14 0 8 3 23 6 33 5 13 2 12 -10 -4 -32 -42 -61 -31 -114 44 -20
29 -26 31 -64 27 -53 -7 -88 23 -88 73 0 19 -7 44 -16 57 -8 14 -16 36 -18 50
-1 14 -6 29 -9 33 -4 3 -7 12 -7 20 0 7 -9 22 -20 33 -26 26 -25 40 1 40 17 0
19 3 10 14 -8 10 -9 25 -3 48 7 26 14 32 30 31 12 -2 22 1 22 6 0 6 -12 11
-27 13 -23 2 -27 7 -25 28 2 14 9 31 14 38 8 9 6 12 -7 12 -10 0 -15 5 -12 13
3 8 -5 26 -18 41 -12 15 -31 53 -41 86 -19 58 -20 60 -54 59 -19 0 -55 -8 -80
-17z"/>
<path d="M2088 7893 c-11 -3 -17 -13 -15 -26 1 -16 -4 -23 -20 -25 -17 -2 -23
-10 -23 -28 0 -13 -4 -24 -10 -24 -5 0 -10 -7 -10 -15 0 -7 -7 -18 -16 -23 -9
-5 -19 -24 -23 -43 -9 -44 -50 -67 -89 -50 -22 10 -30 9 -54 -9 -20 -15 -33
-18 -41 -12 -7 6 -23 12 -36 14 -19 2 -39 22 -47 45 0 2 -25 -5 -55 -14 -30
-9 -58 -16 -62 -15 -10 3 -67 -30 -67 -38 0 -4 -9 -16 -20 -28 -19 -20 -22
-20 -55 -7 -19 8 -37 15 -40 15 -11 0 -4 -22 20 -61 26 -40 26 -59 -1 -59 -8
0 -22 -4 -32 -9 -24 -13 -245 -91 -256 -91 -5 0 -20 12 -33 26 -19 21 -27 24
-38 14 -17 -14 -45 -7 -46 12 0 7 -14 24 -30 37 -39 30 -60 16 -39 -25 13 -23
13 -27 -5 -41 -18 -12 -20 -12 -23 2 -3 14 -6 14 -18 -4 -9 -12 -13 -25 -9
-31 13 -21 -9 -62 -46 -86 -35 -22 -39 -29 -39 -64 0 -49 -19 -98 -49 -124
-11 -11 -21 -27 -21 -38 0 -42 -81 -48 -117 -8 -18 19 -19 19 -51 -2 -36 -22
-39 -30 -17 -48 8 -7 15 -18 15 -25 0 -6 9 -22 19 -34 19 -22 19 -23 -5 -58
-29 -43 -29 -46 -7 -84 14 -24 15 -33 5 -47 -7 -9 -16 -26 -21 -37 -10 -23
-39 -50 -60 -57 -19 -6 -38 -68 -29 -98 12 -41 30 -123 33 -150 5 -46 16 -57
72 -76 40 -14 58 -26 66 -44 13 -33 9 -72 -9 -86 -12 -10 -12 -17 -3 -37 10
-22 9 -31 -7 -54 -27 -42 -19 -79 28 -124 30 -28 39 -43 33 -56 -4 -10 -11
-33 -15 -51 -5 -19 -16 -42 -26 -53 -12 -14 -17 -35 -17 -79 1 -33 -3 -60 -7
-60 -4 0 -11 -11 -14 -25 -4 -14 -38 -58 -76 -97 -39 -40 -70 -76 -70 -80 0
-8 18 -26 54 -56 9 -7 17 -27 17 -45 1 -18 3 -39 4 -47 1 -8 3 -22 4 -31 0 -9
19 -34 41 -55 46 -45 57 -70 63 -142 4 -48 1 -57 -29 -94 -26 -33 -31 -46 -23
-60 6 -10 8 -22 5 -27 -7 -11 12 -27 44 -36 14 -4 42 -20 63 -37 21 -16 54
-32 73 -35 20 -3 38 -12 41 -19 3 -8 11 -14 19 -14 19 0 47 -69 34 -85 -11
-13 -8 -79 5 -107 10 -24 25 -23 25 1 0 23 12 32 54 40 21 5 32 14 36 30 3 15
18 27 44 36 21 7 48 23 60 34 29 27 56 27 56 0 0 -18 4 -21 28 -16 22 5 34 0
56 -24 15 -16 34 -29 41 -29 14 0 25 31 25 74 0 23 3 27 20 23 17 -4 20 0 20
24 0 50 34 96 57 78 6 -6 21 -8 32 -4 10 3 22 1 26 -5 4 -6 16 -8 27 -4 16 5
34 -7 79 -52 33 -32 59 -68 59 -79 1 -17 3 -16 16 8 8 15 23 27 33 27 11 0 24
12 31 30 7 16 21 32 32 36 15 5 19 13 16 42 -2 34 -1 37 23 34 15 -1 32 4 39
13 7 8 28 15 46 15 33 0 34 1 34 39 0 22 5 43 11 46 6 4 8 13 5 21 -3 7 2 20
10 28 11 12 12 20 5 35 -8 14 -6 25 9 44 11 14 20 32 20 41 0 20 35 42 79 51
47 10 57 23 55 72 -1 25 3 47 11 53 16 14 71 4 82 -13 17 -26 73 -56 117 -62
l47 -7 -7 -43 c-6 -42 -5 -44 22 -47 18 -2 33 -12 40 -27 19 -37 32 -39 81
-15 60 31 73 43 73 65 0 23 20 61 38 72 10 7 10 12 2 22 -7 8 -8 20 -4 27 11
16 12 68 2 68 -5 0 -8 5 -8 11 0 6 -14 22 -30 36 -17 14 -28 28 -25 31 6 7
-51 42 -68 42 -8 0 -24 -11 -37 -25 -13 -14 -28 -25 -33 -25 -6 0 -25 11 -43
25 -18 14 -46 25 -63 25 -34 0 -43 24 -17 44 16 13 30 115 18 134 -7 10 -15 9
-39 -3 -31 -15 -93 -11 -93 6 0 5 -11 15 -25 21 -20 9 -25 18 -25 49 0 23 5
39 15 43 22 8 18 39 -7 65 -20 22 -22 23 -34 6 -13 -17 -54 -13 -54 5 0 5 -9
10 -21 12 -11 2 -27 15 -36 29 -15 24 -14 27 16 56 33 34 40 60 16 69 -22 9
-15 190 10 227 11 18 19 49 20 82 0 30 4 57 7 61 4 3 4 12 2 19 -3 7 -1 16 5
20 18 11 12 22 -18 35 -26 10 -81 77 -81 97 0 5 9 14 21 21 18 12 21 11 26 -7
6 -24 4 -24 38 -11 22 8 25 13 15 25 -6 8 -9 23 -5 34 4 13 -3 34 -21 60 -21
33 -24 44 -14 56 9 11 8 20 -8 42 -10 15 -17 33 -15 40 3 7 -5 22 -16 35 -12
12 -21 24 -22 27 0 3 -2 24 -4 46 -6 53 2 76 22 68 13 -5 15 -1 9 23 -14 59
-15 58 46 60 61 2 114 20 123 42 3 7 -2 29 -10 49 -8 19 -12 40 -8 45 3 6 -4
18 -17 28 -18 14 -21 22 -15 49 6 28 11 32 31 28 18 -3 24 0 24 14 0 11 7 19
15 19 9 0 12 6 9 15 -4 8 -2 15 4 15 14 0 9 155 -6 173 -7 8 -10 21 -8 28 3 8
7 38 9 68 3 29 9 56 15 60 5 3 17 21 26 38 15 30 15 35 1 56 -12 19 -79 51
-96 46 -2 -1 -12 -3 -21 -6z"/>
<path d="M9525 7390 c-3 -5 -1 -10 4 -10 6 0 11 5 11 10 0 6 -2 10 -4 10 -3 0
-8 -4 -11 -10z"/>
<path d="M5992 6384 c-18 -20 -30 -40 -27 -44 3 -5 1 -11 -4 -14 -5 -4 -13 -2
-16 4 -4 6 -16 8 -28 4 -12 -4 -42 -6 -67 -5 -62 2 -98 -30 -95 -85 2 -35 6
-39 30 -41 16 -1 32 -8 36 -15 14 -21 10 -55 -6 -62 -11 -4 -14 -13 -9 -30 9
-38 -3 -48 -37 -31 -23 13 -37 14 -69 5 -21 -6 -42 -15 -45 -20 -3 -6 -15 -10
-26 -10 -13 0 -19 -7 -19 -24 0 -13 -3 -37 -6 -54 -5 -26 -3 -31 17 -34 29 -4
37 -39 15 -61 -9 -9 -16 -23 -16 -33 0 -14 -7 -16 -45 -11 -36 3 -48 1 -58
-13 -17 -23 -69 -32 -94 -15 -38 27 -49 -1 -40 -100 9 -89 20 -136 36 -144 14
-9 13 -16 -14 -68 -16 -32 -35 -61 -41 -65 -7 -4 -15 -25 -19 -45 -4 -21 -9
-41 -11 -44 -5 -9 -95 18 -108 31 -14 14 -52 12 -77 -2 -17 -11 -22 -10 -33 5
-7 9 -18 17 -24 17 -12 0 -24 -29 -16 -41 3 -5 -5 -9 -16 -9 -19 0 -21 -4 -16
-25 4 -16 2 -27 -6 -30 -8 -3 -13 -26 -14 -60 -1 -30 -7 -62 -14 -70 -6 -8 -9
-19 -5 -25 7 -11 -38 -60 -56 -60 -15 0 -10 -28 7 -38 14 -8 14 -13 1 -53 -9
-26 -11 -46 -6 -50 10 -6 6 -109 -5 -127 -3 -6 -2 -13 4 -17 5 -3 10 -27 10
-52 0 -49 -42 -151 -66 -160 -7 -3 -40 9 -73 25 -33 16 -62 28 -64 26 -3 -3
-2 -24 0 -47 6 -49 -11 -71 -55 -72 -19 0 -28 -6 -32 -25 -4 -18 -14 -26 -33
-28 -24 -3 -26 -7 -21 -30 4 -15 11 -32 16 -39 5 -6 10 -29 11 -51 1 -39 2
-40 34 -35 32 6 33 5 33 -33 1 -53 0 -71 -3 -129 l-2 -50 48 -3 c27 -2 63 -12
80 -23 18 -10 49 -19 70 -19 21 0 49 -7 62 -16 14 -9 25 -13 25 -9 0 5 8 1 19
-9 10 -9 25 -14 35 -10 10 4 16 1 16 -9 0 -21 14 -29 35 -21 11 4 15 14 11 26
-8 32 4 48 34 48 27 0 43 -19 45 -55 3 -28 18 -55 32 -55 8 0 29 -11 45 -26
20 -16 37 -23 47 -18 9 4 41 8 71 9 30 2 76 7 102 13 37 7 52 6 68 -5 17 -12
20 -12 20 0 0 8 8 25 18 37 l18 23 45 -24 c25 -14 61 -40 81 -60 20 -20 49
-39 66 -42 18 -4 33 -14 37 -27 4 -12 15 -20 28 -20 11 0 30 -8 41 -19 51 -46
88 -31 90 36 1 39 5 41 81 46 27 2 30 -1 27 -24 -2 -20 5 -31 25 -45 16 -10
35 -17 43 -16 16 2 60 -59 60 -83 0 -8 12 -26 26 -42 17 -18 23 -34 20 -49 -4
-13 0 -27 10 -34 12 -11 22 -9 53 8 50 28 77 28 97 -2 8 -14 27 -26 42 -28 19
-2 28 -10 30 -24 6 -44 92 -52 92 -8 0 8 6 17 14 20 8 3 22 21 31 40 9 19 22
34 29 34 7 0 21 9 32 21 15 16 16 24 6 39 -17 28 -15 55 8 97 11 21 20 46 20
56 0 23 18 57 30 57 5 0 11 -9 15 -19 3 -11 16 -23 28 -27 25 -8 57 -41 57
-58 0 -13 51 -46 70 -46 8 0 11 9 8 25 -3 14 -1 28 3 31 5 3 9 32 9 64 l0 59
-36 3 -35 3 -3 64 c-2 54 1 68 20 91 21 24 22 28 7 43 -21 20 -11 45 24 58 20
7 33 7 45 0 28 -17 94 -16 121 2 13 8 41 17 62 19 29 2 39 8 41 23 2 10 -2 25
-8 32 -13 16 -3 43 16 43 7 0 16 -7 20 -15 7 -19 40 -19 56 -1 11 15 39 11 51
-7 15 -22 19 64 5 91 -15 29 -14 29 22 49 32 16 37 24 38 54 0 18 6 55 14 82
12 38 18 47 35 45 16 -2 21 3 23 29 2 19 12 37 25 46 19 12 22 22 19 56 -4 36
-6 40 -23 31 -10 -6 -30 -8 -44 -4 -28 7 -31 27 -15 84 9 30 8 37 -10 49 -11
7 -20 22 -20 32 0 10 -5 21 -10 24 -6 4 -10 12 -9 18 4 30 -3 45 -21 50 -15 4
-18 12 -15 36 4 37 12 51 28 51 7 0 20 9 30 20 18 22 42 26 52 10 3 -5 17 -10
30 -10 12 0 25 -6 28 -14 3 -8 26 -18 51 -21 63 -10 95 14 96 71 0 43 -20 67
-65 76 -15 2 -20 12 -20 38 -1 19 -9 50 -18 69 -21 43 -22 41 9 41 24 0 25 3
19 28 -14 58 -36 91 -66 97 -16 4 -33 4 -39 0 -16 -10 -41 15 -35 34 9 30 -34
67 -62 53 -10 -6 -38 -16 -63 -23 -25 -7 -49 -16 -54 -21 -21 -18 -36 -8 -30
18 7 26 6 26 -35 19 -39 -6 -41 -6 -41 19 0 15 8 30 19 36 28 14 17 41 -36 85
l-45 37 31 32 c17 18 31 41 31 53 0 12 5 23 12 25 7 3 9 14 4 31 -5 23 -12 27
-40 27 -26 0 -40 7 -57 30 -16 20 -33 30 -51 30 -39 0 -58 10 -58 30 0 10 -7
23 -15 30 -17 14 -19 47 -5 85 8 22 7 27 -14 35 -13 4 -26 16 -29 24 -4 10
-19 16 -40 16 -25 0 -38 7 -55 29 -37 51 -103 72 -86 28 9 -24 -33 -48 -61
-35 -19 9 -29 7 -51 -11 -33 -26 -60 -27 -73 -3 -9 16 -11 15 -31 -5 -12 -13
-33 -23 -49 -23 -21 0 -31 7 -44 35 -13 27 -23 35 -42 35 -42 0 -121 52 -109
71 9 15 -31 26 -86 23 -73 -3 -119 12 -112 38 4 15 0 19 -14 16 -14 -2 -19 3
-18 20 1 32 -18 27 -54 -14z"/>
<path d="M10555 6342 c-3 -3 -5 -12 -5 -19 0 -17 -41 -73 -53 -73 -14 0 -36
-32 -37 -52 0 -10 11 -25 25 -34 31 -20 32 -33 3 -32 -52 3 -78 -2 -78 -17 0
-8 -9 -19 -20 -25 -24 -13 -26 -33 -5 -50 25 -21 1 -51 -35 -43 -34 6 -51 -17
-30 -42 31 -38 -33 -63 -72 -28 -16 14 -22 14 -43 3 -23 -12 -28 -11 -53 12
-15 13 -42 31 -60 38 -29 11 -35 11 -50 -3 -13 -13 -13 -19 -4 -29 7 -7 12
-29 12 -50 0 -28 -7 -44 -27 -63 -32 -29 -39 -30 -51 -10 -4 9 -21 18 -38 21
-34 6 -74 30 -74 44 0 25 -29 6 -45 -31 -20 -44 -49 -69 -78 -69 -10 0 -32
-10 -48 -22 l-31 -23 -18 22 c-11 14 -16 32 -13 45 5 19 0 17 -29 -14 -31 -33
-37 -36 -69 -29 -19 5 -47 14 -62 20 -23 9 -29 8 -34 -7 -4 -9 -11 -20 -17
-24 -19 -13 -69 -8 -88 9 -16 14 -21 15 -46 2 -15 -8 -33 -22 -40 -31 -7 -10
-22 -18 -32 -18 -57 0 -117 -73 -84 -101 8 -6 14 -18 14 -26 0 -7 7 -24 15
-36 13 -20 13 -27 -3 -60 -9 -20 -25 -39 -34 -42 -37 -13 -18 -28 26 -22 52 7
62 -1 72 -61 6 -41 5 -43 -25 -55 -17 -6 -31 -15 -31 -19 0 -4 -8 -8 -18 -8
-11 0 -27 -9 -36 -19 -17 -19 -17 -20 3 -31 12 -6 21 -17 21 -24 0 -8 10 -21
23 -30 21 -15 21 -16 5 -29 -10 -8 -18 -21 -18 -30 0 -9 -9 -19 -20 -22 -11
-3 -20 -15 -20 -25 0 -13 -9 -22 -27 -26 -57 -12 -63 -16 -69 -40 -7 -28 -39
-32 -53 -6 -5 9 -28 28 -50 40 l-41 23 0 -28 c0 -16 -5 -34 -11 -40 -8 -8 -5
-14 10 -22 12 -7 21 -18 21 -26 0 -32 61 -48 163 -44 33 1 57 -16 57 -43 0
-10 7 -30 16 -43 10 -15 14 -34 10 -49 -4 -18 -1 -28 11 -35 15 -8 16 -14 5
-43 -6 -19 -12 -41 -12 -49 0 -26 -20 -39 -41 -26 -14 9 -22 7 -38 -7 -21 -19
-29 -42 -12 -31 6 3 15 -4 21 -16 8 -14 18 -19 31 -16 14 4 24 -3 36 -26 11
-22 12 -32 4 -35 -6 -2 -11 -11 -11 -20 -1 -9 -7 -33 -14 -53 -12 -35 -12 -36
16 -48 35 -16 35 -26 1 -43 -21 -10 -27 -20 -25 -38 1 -13 -4 -38 -12 -54 -9
-19 -13 -52 -10 -86 11 -169 13 -179 34 -208 21 -28 21 -32 7 -52 -14 -20 -14
-25 -2 -44 10 -15 13 -39 9 -81 -5 -56 1 -94 28 -170 6 -16 12 -42 13 -56 2
-14 7 -34 13 -45 6 -10 16 -33 22 -50 9 -25 20 -34 50 -42 31 -7 40 -7 44 4 3
8 15 14 27 14 12 0 37 16 56 36 l34 37 72 -20 c67 -19 72 -22 70 -46 -1 -16 3
-27 11 -27 7 0 21 -9 30 -19 14 -15 15 -24 7 -39 -6 -11 -15 -40 -20 -64 -6
-25 -13 -52 -17 -61 -5 -14 0 -17 29 -17 39 0 64 -19 73 -54 5 -21 13 -24 68
-28 45 -4 75 -13 106 -33 38 -24 48 -26 72 -17 16 6 30 6 34 1 3 -5 18 -9 33
-9 39 0 52 -20 54 -82 2 -47 4 -53 26 -56 18 -3 22 -8 18 -28 -3 -16 0 -24 10
-24 8 0 12 -6 9 -12 -3 -7 -9 -21 -12 -30 -4 -10 -11 -18 -16 -18 -5 0 -17 -7
-25 -16 -10 -10 -18 -12 -22 -5 -4 6 -22 12 -41 13 -29 2 -34 0 -32 -14 4 -27
-16 -58 -38 -58 -30 0 -24 -24 10 -37 20 -8 30 -18 30 -33 0 -27 56 -53 82
-39 10 5 39 9 65 9 27 0 67 1 91 2 24 2 46 0 49 -5 9 -14 -18 -37 -58 -47 -23
-6 -39 -17 -39 -25 0 -8 3 -15 8 -16 4 0 23 -3 42 -6 19 -4 51 -5 70 -4 19 1
115 3 214 4 l179 2 21 30 c11 16 28 35 37 42 9 7 40 41 69 77 50 62 54 64 79
53 14 -7 34 -20 44 -30 16 -16 19 -16 45 0 15 9 43 30 62 45 38 31 80 37 80
13 0 -8 -5 -15 -11 -15 -8 0 -9 -4 0 -13 6 -8 8 -17 4 -20 -3 -4 2 -10 12 -13
9 -4 28 -17 40 -28 21 -20 22 -24 10 -54 -8 -17 -13 -33 -12 -33 3 -2 54 -8
97 -11 33 -3 35 -5 32 -36 -3 -23 1 -32 12 -34 9 0 21 -1 28 -2 12 -1 71 74
87 110 5 12 21 24 34 28 19 4 26 15 32 43 4 21 11 46 16 55 22 40 134 75 312
95 37 4 47 9 47 24 0 10 8 23 19 28 10 6 21 21 24 33 2 13 12 50 21 83 9 33
19 87 22 120 5 71 -14 197 -33 208 -7 4 -13 25 -13 46 0 25 -5 39 -12 38 -46
-1 -64 22 -60 76 0 12 -5 17 -17 15 -49 -8 -70 75 -31 125 19 24 27 26 87 26
53 -1 70 3 86 20 12 11 19 22 16 24 -2 1 -29 15 -60 30 -62 31 -159 116 -159
141 0 27 -22 64 -46 77 -14 7 -24 22 -24 33 0 40 -21 97 -38 103 -15 6 -46 40
-47 53 -1 3 -5 16 -9 29 -5 16 -4 26 4 31 18 11 4 40 -19 40 -13 0 -27 12 -36
30 -9 17 -22 30 -30 30 -8 0 -15 5 -15 10 0 6 -5 10 -12 10 -19 0 -47 31 -41
46 3 8 1 14 -5 14 -5 0 -12 12 -15 28 -8 39 -45 75 -72 70 -19 -4 -25 1 -35
35 -9 30 -9 47 0 71 7 17 15 40 20 51 27 73 28 85 13 115 -8 17 -21 30 -29 30
-16 0 -19 36 -4 45 14 9 12 35 -2 30 -19 -7 -51 22 -53 47 -1 16 -11 25 -33
32 -27 8 -32 14 -32 40 0 17 -9 48 -19 67 -20 37 -32 135 -19 155 12 18 0 93
-16 110 -9 8 -16 21 -16 27 1 19 37 57 54 57 9 0 19 7 22 15 4 8 12 15 19 15
7 0 15 8 19 18 3 9 8 22 11 27 3 6 -5 21 -18 35 -28 31 -33 106 -9 133 8 9 10
17 5 17 -19 0 -23 43 -6 62 12 14 13 21 4 32 -9 11 -6 18 15 35 15 12 23 21
19 21 -5 0 -1 8 9 18 15 18 15 20 -2 43 -10 13 -19 38 -20 54 -1 17 -7 32 -12
33 -6 2 -10 14 -10 27 0 14 -9 29 -19 35 -11 5 -23 19 -26 31 -6 18 -13 20
-41 16 -27 -5 -34 -2 -39 14 -4 10 -10 19 -15 19 -15 0 -60 47 -60 62 0 18
-34 30 -48 16 -12 -12 -62 1 -62 16 0 16 -46 33 -110 41 -30 4 -72 11 -93 16
-35 9 -38 13 -36 42 4 62 2 66 -41 65 -21 0 -41 -3 -45 -6z"/>
<path d="M2105 5349 c-4 -6 2 -13 14 -16 27 -7 27 -33 0 -33 -16 0 -20 -5 -17
-18 8 -29 -14 -49 -62 -57 -54 -9 -70 -20 -70 -50 0 -13 -7 -26 -16 -29 -12
-5 -14 -14 -9 -37 5 -21 3 -34 -6 -40 -14 -8 -39 -81 -39 -116 0 -15 -6 -23
-17 -23 -10 0 -40 -10 -66 -22 -43 -21 -48 -26 -43 -50 4 -22 1 -27 -20 -32
-16 -4 -30 -19 -40 -41 -8 -19 -21 -35 -30 -35 -8 0 -25 -12 -38 -27 -28 -32
-60 -26 -51 10 5 19 -3 32 -40 66 -30 27 -52 40 -62 37 -9 -4 -24 0 -33 9 -21
19 -79 14 -91 -8 -5 -9 -8 -30 -7 -48 3 -29 0 -33 -22 -34 -19 0 -25 -6 -27
-25 -4 -46 -15 -90 -23 -90 -4 0 -27 18 -51 41 -33 31 -48 39 -66 34 -16 -4
-26 0 -35 14 -11 19 -13 19 -37 2 -15 -9 -43 -26 -63 -36 -22 -11 -38 -27 -38
-37 0 -11 -10 -20 -27 -24 -48 -10 -51 -12 -55 -36 -2 -16 -9 -22 -21 -20 -30
5 -30 -26 1 -76 40 -66 46 -100 27 -153 -9 -24 -21 -62 -26 -84 -5 -22 -12
-47 -15 -55 -4 -8 -8 -33 -10 -54 -2 -22 -8 -44 -13 -50 -5 -6 -11 -25 -14
-41 -5 -37 -14 -60 -72 -177 -25 -50 -45 -96 -45 -101 0 -6 -7 -17 -15 -26
-45 -46 -83 -96 -79 -103 3 -4 24 -5 48 -2 30 5 54 2 75 -9 44 -22 71 -12 72
27 1 17 0 40 0 52 -1 11 5 27 13 34 25 20 20 73 -6 85 -29 13 -30 46 -2 60 12
6 30 17 39 25 15 12 18 12 27 -4 7 -12 13 -15 17 -7 12 18 73 -10 67 -31 -6
-25 9 -22 38 7 30 30 46 32 46 6 0 -11 3 -26 6 -35 5 -14 9 -14 36 0 28 14 30
14 35 -5 3 -12 14 -21 24 -21 11 0 19 -7 19 -15 0 -8 5 -24 12 -35 10 -15 9
-22 -5 -38 -9 -10 -17 -33 -17 -50 0 -41 37 -102 61 -102 11 0 28 -14 39 -32
16 -26 19 -43 14 -80 -7 -56 2 -60 39 -18 32 35 37 36 70 10 14 -11 32 -20 40
-20 9 0 19 -4 22 -10 3 -5 28 -12 56 -16 28 -4 57 -13 65 -21 8 -8 30 -19 49
-24 20 -6 35 -16 35 -24 0 -21 84 -24 105 -4 13 13 49 11 63 -3 7 -7 12 -23
12 -37 0 -15 7 -35 15 -45 8 -11 15 -30 15 -43 0 -27 -2 -27 43 -8 78 32 127
9 127 -62 0 -17 5 -35 11 -38 6 -5 2 -13 -11 -22 -17 -12 -19 -17 -9 -24 8 -5
17 -9 20 -9 8 0 42 35 69 74 14 19 31 36 38 36 20 0 92 -39 92 -50 0 -6 8 -10
18 -10 12 0 21 11 27 33 8 25 16 33 38 35 16 2 34 -2 42 -8 8 -7 24 -9 36 -5
18 6 33 -4 86 -61 74 -80 86 -111 55 -132 -12 -8 -22 -23 -22 -33 0 -11 -5
-19 -11 -19 -6 0 -9 -6 -6 -13 7 -19 -59 -81 -79 -73 -10 4 -28 -4 -46 -19
-17 -15 -37 -24 -44 -21 -8 3 -14 -1 -14 -8 0 -8 -7 -16 -15 -20 -8 -3 -14
-11 -13 -18 2 -7 -5 -13 -14 -13 -10 0 -17 -5 -17 -10 3 -23 15 -40 29 -40 8
0 22 -16 31 -35 16 -33 19 -35 70 -35 51 0 54 -1 57 -28 5 -45 29 -81 54 -82
16 0 33 -15 56 -50 48 -73 64 -93 95 -126 22 -24 27 -38 27 -83 0 -35 5 -58
15 -66 8 -7 15 -16 15 -21 0 -16 55 -64 95 -82 l39 -19 23 29 c13 15 23 31 23
36 0 4 6 7 14 7 17 0 56 51 56 73 0 22 69 72 82 59 8 -8 17 -4 31 14 16 21 25
25 52 20 27 -5 33 -3 38 14 7 28 31 25 45 -6 7 -14 17 -22 22 -19 6 4 5 16 -4
33 -12 23 -12 30 -1 45 20 27 7 56 -36 77 -33 17 -72 60 -54 60 3 0 -1 13 -10
30 -8 16 -15 37 -15 47 0 10 -14 27 -30 38 -35 23 -34 22 -15 67 9 23 25 40
45 48 17 7 38 26 46 41 14 28 54 41 54 19 0 -5 11 -10 24 -10 13 0 27 -7 30
-16 10 -25 26 -6 26 31 0 19 5 37 10 40 6 3 7 17 4 30 -4 18 3 37 29 72 19 27
36 57 39 68 4 22 35 32 107 34 30 1 42 5 38 14 -2 6 -1 37 3 67 6 42 4 57 -6
63 -24 14 -16 42 16 54 17 6 30 18 30 27 0 9 7 16 15 16 21 0 19 9 -6 29 -21
17 -21 18 -4 44 20 31 19 30 62 18 40 -12 49 -1 22 28 -15 16 -18 25 -10 34 5
7 8 22 5 34 -5 17 0 22 30 27 20 4 36 11 36 16 0 4 3 15 6 24 4 10 -2 19 -19
27 -22 10 -23 14 -13 41 9 24 15 28 36 23 14 -4 28 -12 32 -18 12 -20 21 1 20
52 -1 42 1 50 21 56 12 4 30 6 40 5 9 -1 17 6 17 14 0 11 10 16 32 16 32 0 32
0 10 16 -13 9 -19 20 -15 27 4 6 7 32 8 57 0 41 2 45 28 50 27 5 29 9 33 55 3
40 0 53 -19 73 l-22 23 25 19 c14 11 30 20 37 20 6 0 15 9 18 20 7 23 20 26
32 8 18 -29 48 -36 94 -23 94 27 90 24 74 55 -18 34 -35 139 -24 145 30 19 11
106 -33 148 -17 16 -17 20 -3 40 20 28 19 37 -4 37 -11 0 -23 5 -26 10 -3 6
-15 10 -26 10 -10 0 -19 5 -19 10 0 15 -26 12 -40 -5 -30 -36 -95 -2 -83 43 3
14 -1 30 -10 40 -8 9 -18 40 -21 69 l-6 52 32 9 c28 7 33 13 36 42 4 38 -15
80 -35 80 -7 0 -18 11 -23 24 -11 29 -69 66 -103 66 -15 0 -45 7 -67 16 -43
17 -100 14 -152 -9 -25 -11 -28 -17 -28 -64 0 -47 -18 -84 -27 -56 -3 8 -14 8
-39 0 -26 -8 -40 -8 -54 1 -22 13 -50 6 -50 -13 0 -21 -25 -36 -38 -23 -8 8
-22 8 -54 0 -27 -7 -46 -8 -52 -2 -6 6 -18 10 -27 10 -10 0 -27 13 -38 29 -17
24 -26 28 -56 24 -37 -4 -92 26 -77 41 4 4 -1 14 -12 21 -10 8 -19 25 -20 39
-1 21 -7 25 -45 31 -51 8 -105 36 -109 56 -1 8 8 28 22 44 24 28 25 29 5 42
-10 8 -19 25 -19 38 0 17 -4 23 -14 19 -19 -7 -56 13 -56 31 0 9 -10 15 -25
15 -16 0 -25 6 -25 15 0 11 -11 15 -37 15 -21 0 -47 3 -59 6 -12 3 -27 -1 -35
-8 -8 -8 -21 -17 -31 -20 -9 -4 -19 -22 -23 -40 -11 -50 -31 -73 -80 -94 -25
-10 -44 -23 -41 -30 2 -6 0 -17 -6 -25 -8 -12 -10 -12 -15 0 -3 8 -16 24 -29
36 -13 12 -24 30 -24 40 0 14 -6 16 -28 12 -43 -9 -54 3 -42 43 6 19 10 37 10
40 0 3 -20 11 -44 18 -24 6 -51 18 -59 27 -9 8 -25 15 -36 15 -14 0 -21 6 -21
20 0 15 -7 20 -24 20 -14 0 -28 -5 -31 -11z"/>
<path d="M4170 4550 c0 -5 5 -10 10 -10 6 0 10 5 10 10 0 6 -4 10 -10 10 -5 0
-10 -4 -10 -10z"/>
<path d="M7417 4394 c-10 -13 -27 -24 -39 -24 -17 0 -19 -4 -13 -27 11 -40 9
-103 -4 -116 -7 -7 -16 -6 -28 6 -14 12 -23 13 -36 5 -11 -5 -32 -8 -49 -6
-29 5 -29 4 -24 -27 5 -27 2 -35 -19 -49 -36 -24 -223 -42 -236 -23 -8 12 -49
-1 -49 -15 0 -6 7 -19 16 -29 14 -16 13 -19 -6 -37 -12 -11 -19 -25 -15 -31 3
-6 2 -11 -3 -11 -5 0 -9 -22 -9 -50 1 -48 2 -50 34 -56 18 -3 36 -11 40 -17 9
-15 3 -110 -8 -121 -5 -6 -9 -22 -9 -36 0 -47 -19 -52 -67 -18 -23 17 -43 37
-43 45 0 7 -4 13 -10 13 -5 0 -10 7 -10 15 0 8 -9 15 -20 15 -11 0 -23 7 -26
15 -10 25 -21 17 -28 -20 -4 -20 -16 -51 -27 -69 -16 -28 -18 -38 -8 -59 15
-33 5 -70 -23 -86 -19 -9 -46 -44 -66 -82 -1 -4 11 -12 28 -19 45 -18 63 -50
50 -84 -8 -22 -14 -26 -31 -21 -18 6 -20 4 -14 -14 5 -16 -1 -28 -26 -49 -18
-15 -38 -26 -45 -24 -19 4 -25 -14 -14 -43 9 -25 13 -26 53 -20 23 4 46 8 52
9 5 0 9 -5 10 -11 0 -7 16 -21 35 -32 28 -15 35 -24 33 -46 -1 -15 -10 -33
-20 -41 -15 -11 -15 -14 -3 -15 8 -1 20 -1 27 0 6 1 14 -3 17 -8 3 -5 15 -7
26 -4 13 3 20 0 20 -8 -1 -25 -27 -49 -52 -49 -19 0 -29 -8 -37 -28 -7 -15
-23 -40 -37 -55 l-25 -27 30 0 c16 0 33 -4 36 -10 3 -5 17 -10 31 -10 19 0 28
-8 40 -35 16 -38 37 -44 66 -18 17 15 21 15 54 0 19 -10 45 -15 58 -11 17 4
28 -1 42 -18 19 -24 49 -27 117 -12 18 4 34 1 45 -8 9 -7 29 -20 45 -28 30
-15 32 -22 16 -52 -10 -18 -8 -25 7 -38 11 -9 25 -26 32 -39 61 -105 61 -107
32 -116 -27 -9 -25 -31 5 -59 14 -13 25 -28 25 -34 0 -6 6 -12 13 -15 9 -3 9
-9 0 -25 -10 -17 -8 -23 11 -41 12 -11 28 -21 34 -21 17 0 15 -15 -3 -30 -22
-18 -18 -30 10 -30 16 0 25 -6 25 -16 0 -13 7 -15 34 -10 19 4 45 1 59 -5 20
-9 30 -8 48 5 16 11 26 12 35 5 9 -7 19 -7 33 0 12 6 29 15 39 20 11 5 25 6
32 1 16 -10 89 39 90 60 0 8 19 35 40 59 39 43 47 45 93 26 12 -5 17 -2 17 9
0 19 44 39 79 37 13 0 31 5 40 13 9 8 33 13 54 12 21 -1 41 2 44 7 2 4 13 5
23 2 13 -4 23 1 32 14 7 12 20 21 29 21 9 0 19 7 23 15 8 21 56 19 72 -2 13
-17 13 -17 14 0 0 10 11 22 25 27 14 5 25 14 25 20 0 13 37 50 50 50 6 0 10 8
10 18 0 21 95 82 128 82 41 0 72 29 72 66 0 24 5 36 18 40 9 3 38 16 63 30 26
13 61 24 78 24 25 0 34 7 51 38 12 20 27 48 35 62 8 14 16 36 19 50 8 38 93
122 117 115 18 -6 20 -4 23 38 1 6 11 18 22 24 17 10 24 26 29 74 4 34 14 77
21 95 18 44 18 88 -1 104 -8 7 -15 24 -15 38 0 14 -4 39 -9 56 -33 108 -38
135 -33 184 3 34 0 62 -8 78 -11 20 -11 28 -1 48 13 23 9 46 -9 46 -4 0 -11
-11 -14 -24 -7 -30 -29 -38 -76 -28 -22 5 -39 17 -47 32 -12 25 -44 29 -68 10
-5 -4 -26 -11 -45 -15 -19 -4 -41 -12 -48 -18 -10 -8 -16 -7 -22 2 -9 16 -31
6 -25 -12 7 -18 -28 -58 -50 -59 -29 -2 -115 42 -115 58 0 7 -8 19 -18 26 -10
7 -21 21 -25 31 -4 12 -14 17 -24 13 -10 -2 -62 -7 -115 -11 -108 -8 -104 -10
-99 58 1 15 -2 27 -8 27 -5 0 -24 14 -42 32 -30 31 -31 34 -17 59 10 17 12 32
6 43 -13 24 -28 20 -28 -9 0 -37 -20 -73 -44 -78 -11 -3 -31 -9 -43 -12 -19
-6 -23 -3 -23 13 0 19 -53 62 -77 62 -5 0 -18 -16 -29 -35 -10 -19 -20 -35
-22 -35 -2 0 -15 9 -29 20 -29 23 -45 26 -42 8 4 -37 -2 -46 -31 -44 -17 1
-34 6 -38 12 -4 6 -17 16 -29 23 -19 10 -24 8 -35 -9 -7 -11 -18 -20 -25 -20
-16 0 -17 52 -2 67 7 7 1 17 -20 34 -17 13 -44 34 -60 47 -31 24 -56 28 -66
12 -12 -20 -36 -9 -50 22 -7 18 -11 36 -9 40 2 4 -7 18 -21 32 -29 29 -32 51
-9 60 23 9 7 26 -25 26 -15 0 -31 4 -36 9 -6 6 -17 0 -28 -15z"/>
<path d="M4235 4113 c-27 -8 -60 -17 -72 -20 -13 -3 -23 -9 -23 -14 0 -15 -81
-2 -101 17 -12 11 -19 13 -19 5 0 -7 -16 -19 -36 -27 -34 -14 -35 -16 -18 -29
15 -10 19 -27 19 -72 1 -60 -12 -82 -48 -83 -13 0 -16 -5 -11 -24 3 -13 1 -33
-5 -44 -9 -16 -7 -24 5 -37 16 -15 13 -45 -5 -45 -5 0 -11 -9 -14 -19 -4 -16
-11 -18 -51 -14 l-46 6 0 -56 c0 -61 -19 -80 -51 -51 -10 9 -23 13 -28 9 -18
-10 -12 -33 9 -40 37 -12 19 -65 -27 -84 -30 -12 -37 -47 -16 -86 19 -35 0
-54 -44 -45 -57 13 -68 -2 -33 -47 26 -34 25 -43 -4 -43 -16 0 -27 -7 -31 -19
-3 -11 -16 -23 -27 -27 -21 -6 -21 -6 2 -24 20 -15 22 -21 11 -34 -7 -9 -13
-41 -13 -76 l0 -60 -68 0 -68 0 -22 -42 c-12 -24 -31 -53 -41 -64 -15 -15 -18
-29 -13 -48 3 -15 1 -32 -6 -41 -6 -8 -9 -18 -6 -24 3 -5 2 -21 -4 -35 -10
-28 -36 -33 -70 -16 -11 6 -29 15 -40 20 -17 9 -22 6 -30 -14 -5 -13 -15 -26
-22 -29 -22 -9 42 -51 79 -53 18 0 41 -8 51 -17 10 -10 33 -17 51 -17 22 0 39
-8 55 -26 19 -23 25 -25 43 -15 30 15 53 4 53 -27 0 -17 14 -38 42 -64 40 -37
45 -39 90 -33 l47 7 -3 -50 c-2 -39 0 -49 10 -45 29 11 82 -7 89 -30 6 -19 8
-19 12 -4 2 9 14 18 26 18 81 6 169 4 173 -3 14 -22 94 46 94 79 0 33 30 29
63 -9 28 -31 28 -32 11 -64 -18 -33 -18 -34 8 -61 20 -22 25 -35 21 -60 -5
-31 -15 -38 -50 -34 -6 1 -14 -7 -17 -16 -6 -18 -76 -43 -119 -44 -25 0 -13
-38 19 -62 13 -10 24 -25 24 -33 0 -17 27 -19 32 -2 7 20 55 -6 64 -34 4 -13
13 -27 20 -33 7 -5 20 -32 28 -58 17 -52 36 -77 58 -77 7 0 21 -14 30 -30 23
-40 78 -43 111 -4 12 14 29 26 37 28 8 2 22 6 30 9 8 4 24 5 34 4 10 -1 21 4
23 11 3 8 -4 11 -19 10 -32 -4 -39 45 -9 62 42 22 76 114 49 131 -7 4 -8 14
-3 25 4 11 7 29 6 40 -2 17 5 23 31 29 59 13 117 22 166 24 14 1 22 7 22 20 0
24 17 37 58 46 17 3 32 11 32 16 0 5 6 9 13 9 7 0 22 8 33 18 14 13 30 17 57
14 38 -4 53 13 21 25 -8 3 -13 12 -10 20 3 8 1 23 -5 34 -7 15 -7 24 1 34 8
10 4 20 -20 45 -27 28 -29 33 -15 46 8 9 13 20 9 25 -3 5 2 12 11 15 14 6 13
10 -5 42 -19 31 -20 36 -6 44 12 7 14 20 11 58 l-5 49 55 -6 c47 -5 55 -3 55
11 0 9 -6 15 -12 13 -7 -1 -14 9 -16 23 -2 14 -7 29 -12 33 -4 5 -5 17 -3 28
7 24 63 35 111 21 59 -17 114 1 95 31 -4 6 -8 28 -8 47 0 32 -3 35 -46 47 -44
13 -47 16 -59 61 -6 26 -17 53 -23 61 -9 11 -9 15 1 19 10 3 10 7 1 18 -9 11
-7 19 12 37 13 13 32 26 42 30 25 9 21 47 -8 87 -14 19 -25 37 -25 40 0 3 15
10 33 15 25 8 31 15 30 32 -2 16 9 30 40 51 32 23 47 42 61 83 14 38 16 54 7
57 -6 2 -18 16 -25 31 -16 30 -8 53 19 57 24 4 28 10 27 45 0 23 4 33 19 36
14 4 18 11 13 22 -3 9 -8 23 -11 32 -2 8 -18 23 -34 33 -16 9 -29 21 -29 27 0
5 -13 9 -30 9 -23 0 -30 5 -30 19 0 11 -5 23 -11 26 -6 4 -8 13 -5 21 9 22 -4
44 -26 44 -16 0 -19 -5 -14 -23 4 -18 -1 -30 -20 -48 -25 -24 -26 -24 -40 -5
-8 11 -14 23 -14 28 0 4 -9 8 -20 8 -11 0 -28 4 -38 9 -53 27 -75 34 -104 33
-17 0 -44 8 -59 19 -16 11 -44 19 -69 19 -23 0 -55 8 -71 17 -26 16 -29 16
-47 0 -10 -9 -24 -17 -31 -17 -6 0 -24 -11 -38 -24 -15 -14 -54 -32 -92 -41
-36 -9 -79 -20 -96 -24 -19 -4 -39 -2 -55 6 -14 7 -33 13 -42 13 -24 0 -35 47
-16 63 8 7 19 24 26 39 16 39 -2 48 -63 31z"/>
<path d="M5593 3899 c-7 -36 -28 -48 -50 -27 -12 12 -23 14 -56 6 -23 -5 -65
-9 -93 -9 -70 0 -82 -9 -66 -51 11 -30 10 -35 -8 -50 -12 -10 -20 -28 -20 -47
0 -19 -5 -31 -13 -31 -7 0 -21 -6 -31 -13 -17 -13 -17 -15 8 -42 31 -33 30
-32 10 -81 -34 -85 -39 -94 -55 -94 -18 0 -52 -34 -43 -42 9 -10 -16 -48 -31
-48 -19 0 -19 -9 0 -47 9 -17 25 -33 36 -36 23 -6 17 -27 -7 -27 -8 0 -14 -5
-14 -10 0 -6 -11 -16 -25 -22 -14 -6 -25 -17 -25 -25 0 -7 -4 -13 -9 -13 -5 0
-8 -11 -7 -25 0 -14 5 -25 10 -25 4 0 6 -7 2 -15 -3 -8 -1 -15 4 -15 5 0 9 -8
8 -17 -3 -43 3 -52 41 -63 48 -13 65 -32 57 -64 -4 -17 -1 -28 10 -34 47 -26
-60 -87 -107 -61 -21 11 -86 15 -95 6 -10 -9 8 -77 20 -77 12 0 34 -60 28 -78
-5 -17 -52 -15 -52 2 0 8 -14 15 -35 18 l-35 4 5 -39 c3 -22 0 -46 -6 -53 -7
-9 -7 -19 1 -33 12 -24 9 -56 -8 -88 -10 -18 -9 -24 7 -35 22 -16 36 -54 22
-63 -7 -4 -7 -13 -1 -25 6 -11 15 -29 20 -40 6 -11 10 -29 10 -41 0 -19 -4
-21 -30 -15 -17 3 -39 2 -48 -3 -9 -5 -47 -23 -83 -41 -52 -25 -66 -36 -62
-50 5 -18 -25 -28 -105 -35 -18 -2 -39 -9 -47 -15 -8 -6 -22 -11 -32 -10 -32
4 -44 0 -38 -10 4 -6 1 -17 -5 -25 -9 -10 -9 -19 -2 -27 12 -16 10 -42 -7 -91
-12 -36 -11 -39 12 -57 24 -19 42 -62 38 -88 -1 -7 6 -15 16 -18 10 -3 26 -10
36 -15 11 -6 17 -6 17 1 0 5 16 10 35 10 30 0 35 -3 35 -24 0 -20 6 -25 40
-31 33 -6 41 -12 46 -33 12 -59 39 -79 50 -38 6 26 37 36 49 16 3 -5 22 -10
40 -10 22 0 51 -11 77 -29 60 -41 88 -48 88 -22 0 25 10 32 37 25 25 -7 35
-37 23 -69 -7 -19 -4 -26 16 -40 l25 -16 -21 -29 c-20 -29 -20 -73 1 -86 5 -3
9 -12 9 -20 0 -8 9 -34 20 -56 11 -23 20 -52 20 -65 0 -16 7 -24 25 -28 14 -3
36 -7 50 -10 14 -3 25 -12 25 -20 0 -18 34 -37 46 -26 5 5 24 4 42 -1 27 -7
32 -13 32 -38 0 -41 22 -130 32 -130 5 0 6 -11 2 -25 -4 -16 0 -30 10 -40 9
-9 16 -23 16 -31 0 -12 5 -12 33 -1 17 7 42 11 55 9 18 -3 22 -10 22 -37 0
-20 6 -35 15 -39 11 -4 14 -17 11 -51 -3 -28 1 -56 10 -73 17 -33 18 -59 2
-64 -6 -2 -8 -10 -4 -16 11 -19 64 -14 86 8 24 24 53 26 70 5 7 -8 17 -12 22
-8 10 5 19 7 66 12 6 0 12 10 12 22 0 27 18 59 33 59 7 0 13 10 13 23 5 93 40
140 103 136 60 -3 69 0 75 27 7 28 57 84 75 84 5 0 12 9 16 19 3 10 14 21 24
24 14 3 18 13 16 41 -3 49 -20 67 -56 59 -22 -4 -36 0 -53 16 l-24 22 25 25
c13 13 26 24 29 24 3 0 14 10 24 22 14 18 15 27 7 46 -6 12 -16 21 -22 18 -23
-8 -120 24 -137 47 -20 25 -33 80 -25 101 8 21 -13 36 -49 36 -18 0 -35 4 -39
10 -3 5 -15 0 -26 -11 -16 -16 -23 -18 -35 -8 -19 16 -18 29 7 55 17 18 19 30
14 65 l-7 44 -41 -3 c-27 -1 -49 3 -62 13 -19 16 -19 17 -2 30 10 7 19 28 20
46 6 80 62 159 113 159 8 0 13 4 10 9 -7 11 41 111 64 133 9 9 24 16 31 16 8
-1 27 0 42 0 27 2 29 4 25 44 -3 37 0 42 23 48 54 15 102 60 64 60 -21 0 -88
35 -104 53 -10 13 -6 17 23 27 35 11 71 53 61 70 -3 5 2 21 11 35 13 19 20 23
34 15 29 -16 48 -12 55 12 6 16 1 26 -16 40 l-24 18 23 6 c14 4 22 14 22 28 1
31 54 80 77 71 39 -16 83 -23 89 -13 3 5 13 7 21 4 10 -4 29 9 52 34 20 22 40
38 44 34 4 -4 30 -7 59 -7 29 0 58 -4 64 -8 5 -5 23 -2 38 6 16 8 35 15 42 15
8 0 14 9 14 20 0 14 11 22 39 31 43 13 46 33 6 43 -16 4 -26 16 -30 36 -5 23
-12 30 -30 30 -13 0 -31 7 -40 16 -11 11 -25 14 -45 10 -27 -5 -30 -3 -30 20
0 14 4 23 9 20 11 -7 44 30 62 69 10 20 22 30 36 30 13 0 28 7 35 14 11 12 10
13 -4 8 -10 -3 -20 -2 -22 2 -3 5 -19 11 -36 14 -24 5 -30 12 -30 32 0 15 6
25 14 25 8 0 16 6 18 12 6 17 -16 38 -40 38 -11 0 -22 6 -25 14 -4 10 -20 15
-47 14 -48 0 -65 13 -75 59 -5 26 -2 34 15 43 11 6 25 8 30 5 16 -10 48 31 44
56 -6 34 10 56 29 41 25 -21 30 15 5 38 -31 29 -57 34 -77 16 -37 -33 -96 -14
-114 36 -4 11 -14 16 -27 13 -15 -3 -24 3 -32 20 -15 34 -32 37 -70 11 -48
-32 -64 -36 -84 -21 -12 8 -18 25 -17 48 1 23 -6 42 -18 53 -10 9 -19 25 -19
35 0 10 -9 23 -20 29 -11 6 -19 14 -19 18 4 27 -3 33 -31 27 -25 -6 -30 -4
-30 13 0 12 -9 22 -21 25 -17 5 -20 11 -17 31 4 19 1 26 -11 26 -30 0 -61 -30
-61 -59 0 -41 -45 -68 -77 -48 -7 5 -13 5 -13 1 0 -4 -9 1 -20 11 -10 9 -26
15 -35 11 -11 -4 -22 5 -36 29 -22 36 -33 43 -44 25 -10 -15 -25 -12 -32 8
-11 26 -68 82 -107 103 -46 24 -45 25 -53 -12z"/>
<path d="M9385 3440 c-16 -16 -35 -30 -44 -30 -8 0 -23 -7 -33 -16 -15 -14
-26 -15 -68 -7 -58 12 -60 10 -72 -57 -5 -25 -12 -58 -15 -75 -3 -16 -16 -43
-29 -58 -13 -16 -24 -38 -24 -49 0 -16 -5 -19 -22 -15 -31 8 -118 -79 -118
-117 0 -14 -18 -53 -41 -86 -36 -53 -43 -59 -67 -54 -19 4 -38 -2 -64 -19 -20
-14 -47 -27 -60 -29 -19 -2 -23 -9 -23 -37 0 -29 -6 -39 -34 -58 -19 -13 -41
-21 -50 -18 -21 6 -112 -52 -118 -76 -3 -10 -12 -19 -19 -19 -8 0 -14 -7 -14
-15 0 -8 -6 -15 -14 -15 -13 0 -30 -35 -26 -55 11 -55 9 -74 -9 -80 -11 -3
-30 -27 -42 -52 -20 -41 -21 -46 -6 -55 21 -11 22 -28 2 -28 -18 0 -20 -16 -4
-26 8 -4 10 -29 6 -70 -2 -36 -1 -67 4 -70 15 -9 10 -22 -8 -27 -12 -3 -8 -7
15 -12 26 -6 30 -10 21 -21 -9 -11 -8 -18 1 -29 10 -12 10 -16 -1 -20 -8 -3
-15 -17 -16 -32 0 -15 -6 -29 -12 -31 -19 -6 -12 -22 14 -34 31 -14 31 -19 -1
-57 -21 -26 -25 -38 -20 -66 12 -64 27 -80 71 -79 79 2 95 -5 95 -41 0 -35
-13 -51 -45 -57 -24 -4 -33 -47 -13 -59 7 -5 24 -7 37 -4 24 6 61 -12 93 -46
17 -17 16 -19 -9 -39 -16 -12 -36 -19 -48 -16 -31 7 -59 -18 -51 -47 4 -18 15
-26 41 -31 26 -5 38 -15 51 -41 9 -19 13 -38 10 -44 -4 -5 0 -13 8 -18 27 -16
37 -154 13 -181 -24 -26 -22 -31 18 -48 30 -12 34 -17 29 -42 -4 -19 -1 -32
10 -41 9 -7 13 -18 10 -23 -3 -5 3 -18 15 -29 23 -21 27 -39 10 -39 -6 0 -8
-8 -4 -20 3 -10 2 -28 -4 -38 -7 -14 -5 -27 10 -51 15 -25 25 -31 47 -29 15 2
33 11 40 21 7 9 18 15 23 11 5 -3 16 -1 24 6 7 6 33 12 57 14 23 1 53 8 66 15
13 7 22 8 22 2 0 -22 49 -58 72 -54 24 4 88 -45 101 -79 5 -15 10 -13 38 13
37 35 43 35 63 8 8 -12 19 -18 25 -15 5 4 16 -3 23 -13 9 -12 32 -23 57 -27
38 -6 45 -12 58 -43 8 -20 30 -50 50 -68 34 -29 37 -36 36 -82 -1 -57 6 -64
72 -76 22 -4 54 -16 72 -27 23 -14 41 -17 67 -13 29 6 35 4 41 -15 4 -12 4
-24 1 -28 -11 -10 98 -41 109 -31 23 22 63 9 96 -32 25 -31 37 -39 54 -35 12
3 30 -1 42 -9 16 -11 33 -12 84 -5 35 5 67 10 71 10 4 0 30 -23 58 -51 38 -38
54 -48 64 -40 7 6 37 12 67 13 45 2 60 -2 79 -20 13 -12 29 -22 36 -22 7 0 16
-9 19 -20 7 -21 30 -27 40 -10 3 5 0 20 -8 32 -17 28 -22 94 -7 103 17 11 11
20 -22 34 -18 8 -50 32 -70 53 -21 21 -43 38 -50 37 -31 -4 -40 2 -35 21 6 22
-8 28 -16 8 -4 -10 -7 -10 -18 -1 -10 11 -10 19 5 50 16 34 16 38 2 49 -16 11
-13 42 5 54 20 14 9 243 -13 287 -9 18 -25 65 -35 104 -14 55 -23 73 -40 80
-12 4 -30 20 -39 34 -16 25 -16 27 3 48 12 12 24 33 28 47 4 14 34 65 66 114
32 49 59 96 59 105 1 21 20 45 43 54 10 4 24 21 32 40 7 18 23 41 34 51 12 11
21 27 21 36 0 9 16 35 35 57 19 23 38 55 41 72 4 17 14 33 24 36 9 3 29 27 43
53 14 26 44 71 66 101 23 30 41 60 41 67 0 6 7 18 16 25 25 20 94 126 94 143
0 8 6 19 14 23 16 9 66 79 66 93 0 5 10 17 23 27 12 10 49 49 82 88 33 38 91
100 129 137 37 37 65 69 62 69 -3 1 -12 2 -18 3 -7 0 -13 6 -14 11 0 6 -4 21
-8 35 -6 23 -12 25 -66 25 -33 0 -60 3 -60 6 0 4 7 23 15 43 l15 36 -35 22
c-19 13 -40 35 -46 51 -14 33 -20 34 -57 2 -17 -14 -33 -25 -38 -25 -4 0 -16
-8 -26 -17 -17 -15 -20 -15 -46 10 -16 15 -35 27 -44 27 -8 0 -57 -47 -107
-103 l-91 -104 -62 4 c-103 7 -290 3 -308 -7 -11 -6 -41 -4 -81 4 -61 12 -64
14 -64 42 0 24 5 30 29 34 35 6 48 30 16 30 -12 0 -30 -5 -41 -10 -13 -8 -25
-7 -40 1 -17 9 -30 7 -61 -7 -38 -17 -40 -17 -65 3 -15 11 -35 33 -44 49 -11
21 -22 28 -38 26 -20 -3 -22 0 -19 29 3 26 10 35 29 39 21 5 24 11 21 44 l-4
38 32 -7 c23 -5 35 -3 41 6 6 11 11 10 26 -3 18 -16 19 -16 32 4 12 19 11 20
-11 15 -27 -7 -54 6 -44 21 3 6 14 8 24 5 10 -2 24 3 31 11 11 13 11 16 -3 16
-9 0 -22 12 -29 28 -6 15 -16 30 -21 34 -6 4 -3 14 7 26 25 27 21 42 -12 42
-17 0 -33 5 -37 11 -4 7 -23 9 -50 5 -28 -3 -44 -2 -44 5 0 17 -81 47 -139 52
-49 4 -54 7 -69 38 -21 44 -29 49 -79 49 -46 0 -57 16 -28 40 8 7 15 20 15 30
0 10 7 34 15 53 21 50 19 57 -14 68 -22 8 -27 15 -24 33 4 19 -2 25 -39 39
-61 24 -80 21 -113 -13z"/>
<path d="M6880 2815 c-9 -11 -8 -19 4 -37 21 -30 20 -41 -4 -33 -11 4 -33 4
-49 0 -22 -5 -28 -11 -24 -25 4 -14 -2 -20 -25 -25 -17 -3 -33 -12 -35 -19 -4
-9 -16 -12 -34 -8 -15 2 -55 6 -88 8 -62 4 -80 -3 -101 -41 -8 -14 -24 -19
-72 -22 -34 -2 -71 1 -82 7 -35 19 -61 -20 -67 -98 -2 -37 -6 -68 -9 -71 -2
-3 -22 -5 -43 -5 -45 -1 -58 -10 -43 -29 8 -10 6 -16 -9 -25 -10 -7 -19 -18
-19 -26 0 -7 -14 -20 -31 -29 l-32 -15 29 -15 c17 -8 46 -18 67 -22 40 -8 45
-16 22 -35 -8 -7 -15 -19 -15 -26 0 -8 -10 -14 -24 -14 -24 0 -40 -14 -41 -35
-1 -5 -6 -22 -12 -36 -12 -28 -31 -39 -68 -39 -17 0 -25 -6 -27 -22 -2 -15
-11 -24 -26 -26 -27 -4 -58 -62 -40 -73 20 -13 0 -42 -25 -36 -29 8 -49 -8
-79 -65 -18 -34 -24 -59 -21 -85 2 -21 -1 -39 -8 -44 -6 -4 -8 -12 -5 -18 9
-13 38 -14 52 -2 5 5 17 11 28 13 17 3 19 -5 22 -64 4 -59 2 -68 -16 -78 -21
-11 -28 -40 -10 -40 6 0 10 7 10 16 0 14 8 15 48 9 68 -10 92 -28 92 -70 0
-65 36 -121 71 -110 10 3 27 1 38 -4 13 -7 22 -8 26 -1 10 16 20 12 38 -19 24
-42 21 -57 -18 -98 -19 -20 -35 -42 -35 -48 0 -15 38 -27 46 -14 3 5 9 9 14 9
15 0 51 -43 49 -60 -1 -8 -1 -37 0 -65 1 -45 4 -52 32 -67 38 -22 53 -22 85
-2 18 12 24 24 22 43 -5 43 26 37 68 -13 33 -39 44 -46 75 -46 23 0 42 -7 54
-20 11 -12 26 -18 39 -15 27 7 86 -29 86 -53 0 -10 -11 -24 -24 -32 -32 -17
-37 -42 -20 -99 11 -37 12 -59 4 -97 -6 -27 -10 -71 -9 -99 1 -27 3 -63 3 -80
1 -16 7 -41 15 -54 11 -20 11 -25 0 -32 -8 -5 -16 -9 -19 -9 -3 0 -13 -20 -24
-45 -21 -52 -16 -80 14 -72 11 3 34 0 50 -6 26 -10 32 -8 55 13 14 13 25 29
25 36 0 18 28 25 69 18 47 -7 81 -24 81 -40 0 -11 58 -54 73 -54 5 0 14 42 21
97 2 18 11 42 20 55 9 12 16 34 16 48 1 28 24 65 37 57 5 -3 17 7 28 23 25 37
48 46 118 45 l58 0 -2 40 c-3 52 7 68 37 62 14 -2 27 0 31 6 4 6 11 3 19 -8
13 -17 15 -17 37 8 29 35 59 34 110 -2 55 -39 89 -47 111 -26 9 9 16 25 16 36
0 20 24 26 35 9 9 -15 41 -12 55 5 29 34 105 4 105 -42 0 -8 9 -21 20 -27 24
-14 62 -51 67 -67 3 -9 10 -8 27 2 20 13 24 12 41 -9 10 -12 23 -22 29 -22 6
0 11 -6 11 -13 0 -29 21 -36 56 -19 18 9 34 22 34 27 0 6 14 27 31 48 21 26
39 37 57 37 51 0 57 15 18 45 -52 39 -47 59 18 79 59 19 76 15 110 -23 14 -16
23 -18 37 -10 11 5 19 16 19 23 0 7 13 27 30 44 28 29 33 31 77 26 27 -4 58
-13 70 -20 30 -19 30 -19 37 17 4 20 1 38 -6 47 -11 12 -10 17 3 25 15 9 14
14 -8 46 -13 19 -30 39 -36 43 -9 6 -9 12 1 28 16 27 16 27 -18 45 -36 18 -37
32 -9 80 20 34 20 37 4 61 -10 16 -14 35 -11 49 5 18 1 25 -14 30 -15 5 -19
12 -15 26 4 11 2 26 -5 33 -6 8 -9 20 -8 27 2 9 -9 15 -33 17 -27 2 -39 9 -48
28 -16 35 -14 42 15 69 20 18 31 22 44 15 13 -7 22 -4 35 10 17 19 17 20 -6
40 -17 14 -33 19 -54 15 -40 -6 -62 13 -67 55 -3 31 0 35 22 38 34 5 50 20 50
47 0 22 -4 23 -66 23 -36 -1 -70 4 -75 9 -14 14 -39 125 -31 138 3 5 14 16 24
23 25 18 23 29 -12 47 l-31 16 21 26 c14 18 17 30 10 37 -14 14 -12 26 5 26 8
0 15 6 15 14 0 19 -27 46 -47 46 -12 0 -13 3 -5 13 6 7 15 45 20 84 7 62 6 74
-11 97 -10 14 -14 26 -8 26 7 0 9 9 6 23 -4 15 1 32 14 49 12 14 21 31 21 37
0 5 9 16 20 24 12 9 18 23 17 42 -3 33 -27 47 -27 16 0 -27 -27 -27 -35 -1 -7
23 -40 27 -49 5 -3 -8 -15 -15 -26 -15 -11 0 -20 -6 -20 -14 0 -18 -21 -25
-94 -33 -36 -3 -66 -12 -73 -20 -8 -10 -21 -13 -37 -9 -14 3 -28 2 -31 -4 -3
-5 -15 -10 -26 -10 -10 0 -19 -7 -19 -15 0 -24 -28 -29 -50 -10 -18 17 -40 13
-40 -6 0 -6 -14 -22 -30 -36 -17 -13 -27 -29 -24 -35 7 -10 -29 -48 -45 -48
-5 0 -11 -7 -13 -16 -2 -11 -18 -17 -57 -19 -36 -3 -58 -10 -67 -22 -13 -17
-15 -17 -24 -1 -9 15 -13 15 -37 3 -15 -8 -31 -11 -37 -7 -6 3 -37 5 -68 4
-45 -3 -58 0 -58 11 0 8 -10 17 -21 20 -18 5 -21 11 -17 37 4 27 -1 36 -28 58
-20 16 -30 30 -25 37 15 18 -12 80 -34 80 -16 0 -20 7 -20 35 0 28 4 36 21 38
l22 3 -25 52 c-14 29 -34 62 -45 74 -15 16 -18 29 -13 51 6 28 -5 42 -36 46
-3 1 -13 9 -23 19 -20 19 -32 22 -41 7 -3 -5 -30 -10 -60 -10 -45 0 -55 3 -60
20 -7 22 -22 25 -45 10 -10 -6 -20 -3 -33 11 -21 23 -50 25 -67 4z"/>
</g>
</svg>
