<?xml version="1.0" standalone="no"?>
<!DOCTYPE svg PUBLIC "-//W3C//DTD SVG 20010904//EN"
 "http://www.w3.org/TR/2001/REC-SVG-20010904/DTD/svg10.dtd">
<svg version="1.0" xmlns="http://www.w3.org/2000/svg"
 width="800.000000pt" height="460.000000pt" viewBox="0 0 800.000000 460.000000"
 preserveAspectRatio="xMidYMid meet">

<g transform="translate(0.000000,460.000000) scale(0.100000,-0.100000)"
fill="#000000" stroke="none">
<path d="M2596 4581 c-9 -10 -14 -25 -11 -33 3 -8 -1 -21 -10 -28 -8 -7 -15
-22 -15 -34 0 -27 37 -53 53 -37 14 14 27 14 27 1 0 -5 -7 -10 -16 -10 -11 0
-14 -5 -10 -16 3 -9 6 -17 6 -20 0 -7 72 -34 91 -34 20 0 26 -15 9 -25 -5 -3
-10 -15 -10 -27 0 -16 -4 -19 -24 -14 -15 4 -26 1 -28 -6 -3 -7 -21 -11 -44
-11 -61 2 -84 -5 -84 -26 0 -19 -39 -51 -61 -51 -16 0 -99 -39 -119 -56 -20
-16 -48 -20 -83 -11 -38 10 -64 1 -72 -25 -6 -16 -13 -19 -35 -14 -24 4 -29 1
-34 -19 -4 -14 -4 -36 0 -50 5 -21 3 -25 -14 -25 -12 0 -25 -8 -31 -17 -8 -15
-13 -15 -36 -5 -32 15 -68 15 -82 1 -8 -8 -13 -8 -18 1 -5 8 -13 6 -27 -6 -16
-15 -23 -16 -38 -6 -28 17 -57 15 -69 -5 -6 -12 -20 -16 -48 -15 -45 2 -84
-21 -65 -40 17 -17 15 -45 -4 -52 -8 -3 -14 -14 -12 -24 1 -10 -11 -32 -30
-50 -27 -27 -36 -30 -57 -22 -14 5 -30 21 -36 34 -16 34 -49 42 -49 11 0 -15
-11 -32 -30 -45 -16 -12 -30 -30 -30 -41 0 -19 -24 -27 -34 -10 -3 5 -15 11
-26 14 -15 4 -25 -3 -37 -26 -10 -18 -18 -39 -19 -47 0 -9 -9 -32 -19 -53 -19
-41 -56 -51 -74 -20 -9 17 -12 16 -35 -6 -24 -23 -30 -24 -59 -13 -19 7 -36
12 -39 12 -3 0 -8 -28 -12 -61 -7 -67 -15 -83 -60 -110 -33 -20 -36 -19 -126
49 -39 29 -46 31 -56 18 -6 -9 -20 -16 -30 -16 -27 -1 -59 -21 -84 -53 -20
-25 -24 -27 -39 -13 -10 9 -22 12 -30 6 -8 -4 -20 -6 -27 -3 -7 3 -29 -1 -49
-7 -39 -13 -62 -18 -85 -19 -20 -1 -51 -57 -43 -77 5 -13 2 -15 -14 -10 -16 5
-27 -1 -43 -21 -12 -15 -27 -28 -33 -28 -7 0 -13 -14 -15 -30 -2 -20 -11 -34
-25 -40 -16 -7 -23 -20 -25 -48 -2 -28 -7 -37 -17 -33 -18 6 -22 -9 -20 -67 2
-35 -2 -50 -12 -54 -21 -8 -34 17 -27 53 5 27 1 34 -28 52 -22 15 -27 22 -15
22 9 0 17 7 17 15 0 16 -5 19 -53 29 -23 5 -27 12 -27 39 0 49 -10 57 -68 55
-29 -1 -52 -4 -52 -5 0 -2 4 -12 10 -23 5 -11 14 -29 20 -40 8 -15 6 -22 -9
-29 -41 -22 -29 -71 18 -71 11 0 22 -9 26 -20 3 -11 10 -20 15 -20 4 0 11 -8
14 -17 3 -10 13 -29 21 -42 9 -17 11 -30 4 -42 -24 -45 4 -119 45 -119 15 0
30 -27 27 -48 -1 -7 12 -15 28 -18 17 -4 33 -14 36 -24 3 -10 13 -21 23 -24
27 -10 118 -66 108 -66 -6 0 -5 -5 2 -12 8 -8 15 -8 27 2 11 9 15 9 15 1 0 -6
10 -15 21 -19 20 -8 20 -10 5 -24 -9 -9 -16 -25 -16 -36 0 -18 14 -27 73 -46
23 -7 22 -29 -3 -51 -11 -10 -20 -23 -20 -30 0 -20 -25 -65 -37 -65 -6 0 -14
-23 -18 -50 -6 -46 -11 -53 -43 -68 -29 -14 -37 -23 -35 -43 2 -35 44 -96 70
-103 13 -4 23 -11 23 -16 0 -6 9 -10 20 -10 19 0 32 -26 28 -60 -4 -44 2 -62
21 -57 14 3 21 -3 29 -30 6 -19 8 -41 5 -49 -3 -8 2 -30 11 -49 16 -32 28 -39
64 -38 10 1 12 -13 8 -52 -4 -39 -1 -57 10 -65 7 -7 14 -25 14 -41 0 -24 4
-29 24 -29 32 0 86 -48 86 -78 0 -12 7 -25 15 -28 8 -4 15 -15 15 -25 0 -16 7
-19 40 -19 23 0 51 -7 64 -16 24 -15 44 -5 31 16 -8 13 1 12 48 -1 45 -12 107
-71 107 -102 0 -13 14 -34 35 -51 19 -16 35 -36 35 -43 0 -8 7 -16 15 -19 8
-4 15 -13 15 -22 0 -8 18 -30 40 -49 32 -27 39 -39 34 -58 -4 -18 2 -29 31
-50 32 -25 39 -27 71 -17 35 10 36 10 100 -56 35 -36 65 -75 65 -86 1 -12 2
-36 3 -55 1 -29 9 -39 56 -72 64 -45 77 -47 82 -16 2 12 9 22 16 21 6 -1 26
-2 42 -2 19 -1 30 -7 30 -17 0 -8 11 -22 25 -31 14 -9 28 -28 32 -43 10 -43
47 -73 85 -69 30 3 33 0 48 -40 8 -24 20 -44 25 -43 15 0 45 -61 39 -81 -5
-18 29 -43 46 -33 15 9 52 -14 95 -61 23 -24 50 -44 61 -44 11 0 30 -14 42
-30 13 -17 29 -30 37 -30 26 0 16 -24 -16 -43 l-31 -17 21 -19 c11 -10 21 -23
21 -28 0 -16 38 -46 49 -39 5 4 12 2 15 -3 3 -4 32 -7 63 -6 34 1 69 -4 86
-12 15 -7 33 -13 40 -11 14 2 79 -30 88 -45 4 -5 16 0 29 13 12 12 24 19 27
16 11 -11 32 15 26 31 -5 13 -1 15 21 9 24 -6 28 -3 42 30 8 20 13 43 10 51
-10 24 28 11 39 -15 6 -14 18 -22 35 -22 14 0 31 -5 37 -11 9 -9 19 -6 42 10
29 21 30 21 36 2 3 -10 15 -21 25 -24 11 -3 20 -12 20 -21 0 -11 9 -16 30 -16
37 0 52 26 49 88 -2 48 16 122 31 122 20 0 75 67 77 94 4 50 9 56 45 49 18 -3
38 -9 43 -13 18 -14 90 -20 105 -10 12 8 13 13 2 27 -23 33 -25 44 -13 67 16
30 24 104 22 204 -2 52 2 89 9 98 7 7 10 21 6 29 -3 8 0 15 7 16 7 0 24 2 40
3 16 1 27 -3 27 -11 0 -11 53 -27 75 -23 22 5 36 -1 30 -10 -4 -6 -1 -17 5
-25 7 -8 10 -24 7 -35 -4 -16 0 -20 18 -20 12 0 28 7 35 15 12 15 35 16 58 1
9 -5 15 -1 19 13 3 12 10 21 15 21 6 0 7 7 4 16 -5 14 -4 15 8 5 9 -7 28 -10
48 -6 28 5 39 1 67 -24 19 -17 39 -31 45 -31 38 0 84 -23 90 -43 5 -22 72 -57
107 -57 25 0 77 -29 93 -51 8 -11 20 -19 27 -18 8 2 25 -1 37 -5 18 -6 29 -3
46 13 27 26 99 30 90 6 -4 -9 0 -15 8 -15 8 0 23 -9 33 -20 10 -11 26 -20 37
-20 10 0 18 -7 18 -16 0 -10 6 -14 15 -10 9 3 15 0 15 -10 0 -21 46 -60 110
-93 48 -25 70 -29 179 -35 68 -4 134 -11 147 -16 17 -7 24 -6 24 2 0 9 3 9 12
0 7 -7 19 -12 27 -12 19 0 79 68 93 106 10 30 14 31 49 27 23 -3 45 -1 53 6
11 10 16 9 23 -2 12 -22 48 -37 86 -37 25 0 37 -6 46 -23 7 -13 12 -30 11 -38
-5 -34 -1 -39 26 -29 25 10 46 3 64 -22 13 -17 57 -24 109 -17 32 5 60 4 65
-1 5 -5 11 -29 13 -52 6 -82 10 -102 26 -112 21 -13 46 17 47 54 1 41 11 70
26 70 8 0 14 10 14 25 0 30 42 100 81 136 17 15 32 42 37 65 6 30 13 40 31 42
13 2 35 16 50 32 19 20 33 26 54 23 45 -6 93 -31 140 -73 36 -32 65 -31 102 2
17 16 34 28 40 28 5 0 23 -14 41 -31 27 -26 35 -29 52 -20 11 6 28 11 37 11 9
0 30 14 47 30 16 17 40 30 53 30 49 0 74 17 131 87 24 31 30 33 84 33 32 0 62
4 65 10 3 5 9 32 12 60 3 27 9 50 13 50 4 0 10 14 14 30 5 27 10 30 43 31 21
1 50 0 64 -1 33 -2 85 41 104 86 8 19 16 58 19 87 7 64 20 123 35 161 6 16 9
37 6 47 -7 20 14 59 32 59 6 0 13 10 15 23 2 15 11 23 28 25 38 4 130 35 130
44 0 4 9 8 20 8 10 0 33 13 50 30 17 16 28 30 24 30 -3 0 -1 6 5 14 7 8 9 25
5 41 -6 24 -4 25 19 20 21 -6 29 0 53 32 15 21 41 51 57 67 20 21 27 36 23 51
-4 14 1 28 13 39 20 18 38 18 59 -1 9 -9 20 -9 38 -3 37 14 81 12 108 -5 21
-14 25 -14 50 6 15 12 42 25 59 29 23 4 31 11 29 23 -2 9 2 17 8 17 14 0 13
23 -4 56 -8 15 -13 31 -10 36 3 5 1 14 -4 21 -11 13 -27 94 -23 115 5 27 -30
52 -64 46 -27 -4 -36 0 -49 18 -9 13 -34 27 -59 33 -38 9 -42 13 -45 43 -2 17
-7 32 -13 32 -5 0 -8 3 -7 8 2 4 -7 35 -20 68 -20 56 -21 64 -7 90 19 36 19
44 0 44 -17 0 -19 8 -16 61 2 32 -1 37 -23 41 -20 4 -26 1 -28 -16 -4 -29 -41
-24 -86 14 -26 21 -47 30 -74 30 -20 0 -40 5 -43 10 -10 16 -48 12 -42 -3 3
-8 1 -20 -3 -28 -12 -19 -50 16 -50 47 0 27 -11 35 -50 36 -22 1 -30 6 -32 22
-4 25 -46 35 -59 14 -6 -10 -11 -10 -21 0 -6 6 -20 12 -30 12 -10 0 -19 6 -20
13 -5 44 -19 71 -49 95 -27 22 -30 22 -51 8 -24 -17 -34 -51 -17 -61 5 -4 16
-2 24 5 7 6 16 7 18 3 11 -18 -10 -31 -61 -38 -43 -6 -56 -12 -64 -31 -12 -25
-13 -26 -53 -26 -42 0 -44 1 -60 31 -9 19 -25 32 -45 36 -24 5 -30 12 -30 32
0 29 -28 93 -41 93 -5 0 -9 6 -9 13 0 8 -8 21 -18 30 -20 19 -52 23 -52 7 0
-5 -7 -7 -15 -4 -8 4 -15 11 -15 18 0 6 -14 24 -30 39 -17 16 -28 33 -25 37 3
5 30 14 61 21 37 8 59 19 67 33 7 12 21 21 31 21 13 0 22 10 27 29 7 23 3 35
-17 59 l-25 29 20 34 c12 19 16 34 9 34 -6 0 -21 11 -34 25 -30 32 -44 32 -44
-2 0 -20 -10 -36 -34 -55 -36 -29 -66 -36 -66 -17 0 7 -9 9 -22 4 -13 -3 -46
-6 -75 -5 -40 1 -55 -4 -71 -20 l-20 -22 -7 22 c-11 33 -85 55 -85 25 0 -8 -4
-15 -9 -15 -6 0 -8 24 -6 55 5 59 0 64 -48 46 -27 -11 -50 1 -101 51 -19 20
-26 35 -23 49 5 20 3 21 -32 15 -32 -5 -42 -2 -64 20 -14 14 -31 24 -39 23
-21 -5 -68 10 -68 21 0 5 -16 8 -35 5 -19 -2 -37 0 -40 5 -8 13 -65 40 -85 40
-9 0 -24 -16 -33 -36 -17 -35 -17 -36 5 -54 13 -11 26 -19 30 -20 3 0 16 -31
28 -70 12 -38 26 -70 32 -70 6 0 26 -11 45 -26 34 -25 42 -51 22 -71 -8 -8 -8
-17 0 -31 6 -11 11 -25 11 -31 0 -19 -16 -12 -30 14 -16 30 -30 32 -37 5 -4
-16 -14 -20 -44 -20 -33 0 -40 -4 -45 -25 -7 -27 -14 -31 -31 -14 -15 15 -61
-18 -70 -51 -9 -36 -32 -68 -53 -75 -10 -3 -23 -19 -29 -35 -15 -46 -52 -39
-133 24 -21 15 -36 32 -33 36 3 5 -1 12 -9 17 -8 4 -16 30 -20 60 -6 56 -23
93 -43 93 -7 0 -13 7 -13 15 0 7 -6 18 -13 22 -7 4 -31 34 -52 66 -28 44 -43
57 -56 54 -13 -3 -26 4 -39 23 -11 15 -17 30 -14 33 3 3 3 14 0 25 -8 25 -69
34 -90 14 -12 -12 -15 -11 -21 7 -3 11 -10 21 -15 21 -4 0 -10 9 -13 21 -4 16
-11 19 -26 14 -14 -4 -21 -2 -21 7 0 7 -3 24 -7 37 -5 21 -3 22 17 16 19 -6
22 -4 17 9 -4 9 -2 16 3 16 5 0 16 7 24 16 9 9 24 17 33 18 9 2 22 11 27 22 6
10 12 21 13 23 2 2 9 -1 17 -8 11 -9 21 -5 51 24 21 19 35 38 32 42 -4 3 -2
12 4 19 6 8 9 20 6 28 -4 9 3 16 19 20 39 10 29 38 -42 111 -52 54 -73 69 -98
70 -17 1 -45 5 -62 9 -30 7 -32 5 -48 -33 -9 -23 -19 -41 -23 -41 -5 0 -19 12
-32 25 -12 14 -27 22 -32 19 -5 -3 -9 0 -9 5 0 6 -10 11 -23 11 -29 0 -67 -39
-67 -68 0 -13 -6 -22 -15 -22 -8 0 -15 -4 -15 -10 0 -13 -11 -13 -30 0 -13 9
-12 12 5 26 13 10 16 17 9 22 -6 4 -15 26 -19 50 -10 60 -31 69 -101 43 -67
-26 -64 -26 -64 2 0 13 -7 32 -15 43 -8 10 -15 28 -15 40 0 11 -8 28 -18 37
-16 15 -20 15 -40 1 -32 -22 -108 -23 -124 -3 -7 9 -26 20 -42 23 -15 4 -35
14 -43 21 -8 9 -33 15 -58 15 -39 0 -120 32 -136 53 -9 13 -36 -3 -47 -29 -20
-42 -38 -29 -41 28 -2 57 -15 88 -35 88 -48 0 -103 110 -77 152 17 27 4 79
-20 85 -10 3 -19 12 -19 19 0 19 -35 18 -54 -1 -22 -22 -26 -19 -26 20 0 46
-36 47 -53 3 -3 -10 -14 -18 -23 -18 -10 0 -14 5 -11 15 4 9 -5 20 -25 30 -38
19 -38 19 -38 -2 0 -15 -2 -15 -14 2 -13 18 -15 17 -55 -14 -44 -35 -43 -56 2
-63 18 -2 21 -8 18 -33 -1 -16 -8 -39 -14 -50 -6 -11 -9 -41 -8 -66 2 -39 -1
-47 -20 -55 -17 -8 -31 -7 -51 4 -16 8 -48 12 -76 10 -40 -3 -49 -7 -64 -33
-9 -16 -17 -38 -18 -47 0 -19 -26 -24 -50 -8 -9 5 -19 5 -27 -2 -9 -7 -13 -7
-13 0 0 11 -53 41 -84 48 -33 6 -35 17 -15 58 21 43 25 86 9 86 -6 0 -26 -7
-46 -15 -29 -12 -36 -12 -40 0 -3 7 1 24 9 37 29 45 30 82 3 107 -13 13 -29
20 -34 17 -6 -3 -12 1 -16 9 -3 8 -15 15 -26 15 -17 0 -19 4 -14 25 4 15 2 25
-5 25 -6 0 -11 -9 -11 -20 0 -22 -16 -27 -23 -7 -3 9 -13 8 -39 -6 -35 -18
-68 -15 -68 8 0 16 -25 26 -44 19 -7 -3 -16 2 -19 10 -8 21 -30 20 -51 -3z"/>
</g>
</svg>
